<?xml version="1.0" encoding="UTF-8"?>
<svg version="1.1" xmlns="http://www.w3.org/2000/svg" width="1024" height="1024">
<path d="M0,0 L350,0 L353,1 L353,11 L351,11 L351,15 L348,15 L347,21 L344,22 L341,26 L340,37 L333,38 L331,48 L324,50 L323,59 L315,59 L315,68 L311,71 L309,71 L309,74 L304,75 L304,70 L296,71 L299,73 L293,76 L293,74 L289,72 L292,67 L294,64 L293,61 L282,59 L283,51 L287,51 L288,47 L288,32 L32,31 L31,99 L30,103 L26,104 L24,107 L21,107 L20,114 L12,114 L11,119 L10,122 L6,122 L6,124 L2,125 L1,108 Z " fill="#FDFDFD" transform="translate(337,293)"/>
<path d="M0,0 L5,0 L6,2 L4,8 L6,8 L9,14 L16,15 L22,19 L23,21 L23,31 L16,31 L15,29 L14,31 L14,38 L13,43 L7,43 L7,45 L5,45 L5,55 L-4,56 L-5,57 L-6,72 L-7,81 L163,81 L169,82 L165,84 L158,85 L159,88 L157,94 L155,98 L153,98 L153,100 L149,101 L149,107 L145,110 L132,112 L112,112 L108,111 L105,112 L89,113 L21,113 L0,114 L-38,113 L-47,112 L-47,110 L-54,112 L-57,110 L-64,110 L-67,109 L-67,103 L-66,102 L-65,94 L-64,93 L-56,93 L-55,83 L-51,82 L-51,80 L-46,81 L-46,73 L-43,70 L-40,67 L-37,66 L-37,55 L-32,53 L-29,53 L-29,40 L-25,39 L-23,31 L-13,29 L-11,23 L-10,13 L-1,10 Z " fill="#FCFDFC" transform="translate(384,561)"/>
<path d="M0,0 L126,0 L130,1 L130,7 L123,9 L120,21 L114,21 L113,30 L110,33 L107,33 L106,39 L104,47 L97,48 L96,59 L85,61 L84,63 L82,63 L81,65 L77,64 L75,69 L78,73 L78,80 L77,82 L72,82 L70,93 L61,93 L60,103 L51,104 L50,109 L46,112 L32,113 L32,118 L27,119 L25,120 L16,120 L16,126 L13,126 L13,128 L8,128 L8,130 L0,130 L0,128 L-24,128 L-36,127 L-35,124 L-37,124 L-38,127 L-39,123 L-34,122 L-32,113 L-26,110 L-24,110 L-24,104 L-22,104 L-22,102 L-20,102 L-20,93 L35,92 L36,87 L38,84 L40,84 L40,80 L42,80 L43,76 L44,74 L48,74 L49,67 L56,66 L56,64 L61,59 L64,55 L64,36 L58,37 L-20,37 L-20,32 L-13,31 L-11,25 L-8,24 L-8,16 L-2,16 L-2,3 Z " fill="#FDFDFD" transform="translate(432,360)"/>
<path d="M0,0 L2,0 L3,9 L7,10 L9,9 L11,11 L14,12 L14,16 L12,17 L13,22 L15,22 L12,46 L32,46 L30,50 L31,52 L30,55 L28,55 L29,59 L27,63 L26,63 L25,68 L24,65 L22,68 L18,70 L14,71 L2,71 L-2,72 L-24,72 L-30,73 L-38,73 L-43,72 L-46,71 L-45,63 L-43,63 L-41,59 L-38,55 L-36,43 L-30,39 L-28,31 L-21,30 L-20,25 L-18,25 L-18,18 L-11,17 L-9,20 L-11,20 L-10,23 L-4,22 L7,23 L11,22 L10,21 L8,23 L2,19 L-7,18 L-4,7 L0,3 L-8,3 L-4,1 Z " fill="#FCFCFB" transform="translate(500,529)"/>
<path d="M0,0 L1,3 L9,4 L12,5 L12,7 L14,8 L9,15 L13,19 L16,17 L14,15 L21,13 L24,16 L23,19 L25,19 L26,17 L28,18 L28,15 L30,16 L29,19 L27,19 L27,29 L20,28 L17,27 L18,37 L14,40 L9,40 L8,52 L0,52 L0,59 L-2,64 L-6,65 L-7,75 L-14,77 L-14,74 L-16,67 L-18,62 L-16,57 L-17,52 L-16,40 L-19,38 L-23,38 L-22,36 L-23,35 L-21,34 L-18,19 L-15,14 L-8,11 L-7,4 L-6,3 L0,3 Z " fill="#F1F1F0" transform="translate(618,349)"/>
<path d="M0,0 L373,0 L375,1 L375,9 L373,13 L369,14 L368,21 L366,21 L366,14 L369,13 L369,11 L371,10 L372,4 L1,4 L1,149 L0,149 Z " fill="#A5A4A2" transform="translate(328,287)"/>
<path d="M0,0 L1,3 L7,4 L10,8 L10,11 L7,11 L8,19 L12,20 L12,22 L14,22 L16,30 L23,30 L33,33 L34,34 L34,43 L32,47 L32,50 L37,51 L37,43 L44,43 L44,37 L41,37 L41,35 L37,34 L40,33 L43,34 L47,32 L51,33 L48,34 L46,43 L39,45 L38,53 L32,53 L31,52 L-8,51 L-6,46 L3,45 L3,43 L-1,45 L-3,40 L-1,40 L1,35 L-3,33 L-2,32 L-4,31 L-4,29 L-10,27 L-11,19 L-18,19 L-18,17 L-12,16 L-10,11 L-9,4 Z " fill="#D4D3D3" transform="translate(571,437)"/>
<path d="M0,0 L2,1 L3,5 L1,8 L4,8 L5,12 L5,22 L6,27 L8,50 L9,74 L9,98 L8,98 L6,62 L5,57 L-8,58 L-12,58 L-13,65 L-16,66 L-17,65 L-17,17 L-16,17 L-15,41 L-14,33 L-14,5 L-12,1 L-4,1 L-1,3 Z " fill="#D3D2D2" transform="translate(680,575)"/>
<path d="M0,0 L106,1 L105,7 L104,7 L104,2 L101,3 L99,6 L98,2 L32,3 L39,7 L42,10 L42,13 L44,13 L45,13 L47,13 L49,18 L53,19 L53,21 L56,21 L56,19 L60,20 L61,22 L65,24 L67,20 L74,19 L76,18 L88,18 L89,15 L89,17 L96,17 L96,8 L104,8 L104,9 L98,10 L97,18 L89,19 L88,27 L82,28 L80,32 L75,32 L74,29 L64,30 L61,29 L58,29 L57,31 L53,30 L46,31 L46,29 L41,28 L32,27 L29,26 L29,21 L25,20 L24,23 L21,23 L21,25 L14,26 L9,27 L3,28 L0,27 L6,25 L9,25 L11,20 L13,22 L14,19 L12,18 L15,18 L16,11 L18,11 L17,6 L19,3 L0,2 Z " fill="#F7F6F6" transform="translate(512,573)"/>
<path d="M0,0 L7,0 L8,8 L15,9 L14,12 L17,13 L17,15 L19,16 L18,20 L16,22 L18,25 L21,24 L21,26 L16,28 L12,29 L10,32 L49,32 L50,34 L20,35 L9,36 L8,43 L6,44 L6,35 L0,36 L-3,44 L-8,46 L-11,46 L-12,49 L-18,50 L-18,48 L-22,47 L-25,42 L-25,35 L-17,35 L-17,22 L-16,21 L-9,20 L-8,9 L-1,8 Z " fill="#CFCECE" transform="translate(553,456)"/>
<path d="M0,0 L6,0 L8,4 L8,10 L1,12 L0,23 L-7,23 L-9,35 L-21,36 L-21,41 L-20,42 L-20,47 L-28,47 L-28,57 L-51,57 L-51,55 L-47,53 L-44,42 L-35,42 L-33,29 L-26,28 L-22,14 L-11,13 L-12,8 L-10,4 L-8,4 L-8,2 L-5,2 L-5,5 L-3,5 L-2,1 L0,2 Z " fill="#F63A32" transform="translate(624,622)"/>
<path d="M0,0 L1,0 L2,5 L5,3 L8,3 L8,10 L10,10 L11,14 L17,14 L20,12 L26,12 L28,14 L28,25 L21,26 L20,38 L11,41 L10,51 L9,53 L1,54 L-1,55 L-2,50 L1,48 L1,51 L8,51 L8,41 L3,39 L1,36 L-6,35 L-9,30 L-9,28 L-11,28 L-10,21 L-15,20 L-14,16 L-8,12 L-7,4 L-1,4 Z " fill="#F7F7F7" transform="translate(399,541)"/>
<path d="M0,0 L17,0 L19,5 L21,45 L18,41 L18,32 L15,32 L15,30 L10,31 L8,29 L4,30 L1,30 L-4,28 L-6,32 L-9,33 L-10,38 L-19,41 L-26,40 L-25,35 L-22,28 L-15,24 L-13,22 L-12,12 L-20,11 L-20,10 L-5,10 L-4,8 L-1,8 L-1,1 Z " fill="#C1BFBF" transform="translate(668,632)"/>
<path d="M0,0 L67,0 L68,3 L70,0 L73,0 L73,6 L65,6 L65,15 L58,15 L52,17 L45,17 L40,18 L36,18 L36,20 L38,21 L33,24 L33,22 L29,20 L28,18 L25,17 L25,19 L22,19 L22,17 L17,17 L16,11 L14,14 L13,11 L11,11 L11,8 L8,7 L8,5 L2,3 Z " fill="#FBFBFB" transform="translate(543,575)"/>
<path d="M0,0 L239,0 L241,2 L233,3 L0,3 L0,70 L-5,70 L-5,75 L-8,77 L-11,77 L-12,84 L-21,86 L-20,83 L-15,82 L-14,75 L-7,74 L-6,68 L-4,65 L-1,68 L-1,5 L-3,5 L-3,12 L-4,12 L-4,2 Z " fill="#56514F" transform="translate(375,330)"/>
<path d="M0,0 L1,0 L3,7 L5,8 L4,23 L5,24 L6,32 L6,128 L10,128 L10,123 L14,123 L14,121 L18,121 L19,111 L27,111 L28,104 L30,105 L29,114 L22,115 L20,121 L19,123 L14,125 L12,133 L4,133 L3,140 L0,140 Z " fill="#E8E8E7" transform="translate(330,296)"/>
<path d="M0,0 L250,0 L249,9 L245,11 L244,6 L237,6 L237,5 L243,4 L4,4 L0,5 L0,68 L-1,68 L-1,2 Z " fill="#696665" transform="translate(371,327)"/>
<path d="M0,0 L6,0 L6,2 L1,3 L2,7 L93,7 L182,8 L192,10 L192,17 L188,19 L189,13 L0,12 L-2,11 L-2,1 Z " fill="#5C5755" transform="translate(386,624)"/>
<path d="M0,0 L208,0 L235,1 L238,3 L0,3 Z " fill="#685F5D" transform="translate(304,685)"/>
<path d="M0,0 L3,0 L2,138 L1,140 L-2,140 L-3,88 L-3,23 L-7,21 L-8,12 L-6,2 L-5,2 L-4,15 L-2,24 L1,24 Z " fill="#EDEDEC" transform="translate(693,536)"/>
<path d="M0,0 L360,0 L367,1 L367,3 L362,4 L361,11 L360,11 L360,2 L7,1 L7,132 L6,132 L5,36 L4,28 L3,25 L5,12 L1,10 Z " fill="#F3F3F2" transform="translate(330,292)"/>
<path d="M0,0 L2,0 L1,9 L0,14 L3,14 L6,18 L5,21 L7,22 L5,22 L5,31 L6,35 L4,40 L7,45 L8,52 L2,51 L-1,52 L-4,63 L-2,63 L-1,65 L3,66 L3,64 L5,64 L6,62 L5,66 L3,68 L-1,68 L-1,79 L-2,79 L-3,72 L-5,70 L-10,69 L-10,85 L-11,85 L-11,68 L-6,66 L-8,61 L-8,57 L-5,57 L-5,46 L-3,43 L-5,42 L-7,35 L-12,36 L-14,44 L-15,40 L-13,34 L-9,28 L-5,28 L-5,22 L-4,21 L-3,14 L-9,15 L-10,22 L-13,21 L-10,13 L-3,7 Z " fill="#E9E9E8" transform="translate(597,372)"/>
<path d="M0,0 L5,1 L7,7 L9,10 L7,12 L6,23 L3,23 L5,30 L5,32 L1,34 L1,51 L3,55 L14,59 L30,62 L30,63 L20,63 L12,62 L12,60 L3,58 L0,55 L0,53 L-2,53 L-4,35 L-6,33 L-7,28 L-8,27 L-15,27 L-19,32 L-25,33 L-25,31 L-19,29 L-16,25 L-10,24 L-10,14 L-8,14 L-8,11 L-3,10 L-2,2 Z " fill="#E5E4E4" transform="translate(586,406)"/>
<path d="M0,0 L1,4 L-4,4 L-4,12 L5,10 L7,3 L8,6 L15,6 L15,9 L23,9 L26,8 L26,6 L30,7 L26,11 L24,11 L23,14 L18,19 L17,22 L13,23 L13,25 L10,28 L4,30 L11,30 L11,32 L6,33 L-3,30 L-4,20 L-6,20 L-7,17 L-13,17 L-15,24 L-16,22 L-15,15 L-8,14 L-8,12 L-5,12 L-5,3 L-1,2 Z " fill="#C6C5C5" transform="translate(426,500)"/>
<path d="M0,0 L20,0 L20,2 L8,2 L8,4 L4,6 L5,17 L3,17 L3,28 L-2,28 L-3,26 L-6,29 L-10,31 L-21,32 L-24,33 L-73,33 L-72,31 L-58,30 L-54,29 L-45,30 L-31,30 L-16,28 L-15,23 L-14,20 L-10,19 L-10,17 L-8,17 L-7,13 L-5,6 L-5,4 L2,2 Z " fill="#F4F4F3" transform="translate(547,642)"/>
<path d="M0,0 L159,0 L159,4 L115,4 L4,3 L4,1 L0,2 Z " fill="#3F3535" transform="translate(439,609)"/>
<path d="M0,0 L1,0 L1,11 L10,8 L11,3 L13,3 L14,11 L16,12 L16,14 L21,15 L22,13 L25,13 L25,11 L33,11 L34,12 L33,19 L21,19 L25,23 L25,34 L17,35 L17,45 L14,46 L16,34 L14,34 L12,28 L15,28 L14,24 L8,23 L4,21 L3,12 L-3,14 L-7,14 L-9,20 L-11,21 L-10,14 L-8,12 L-2,11 L-1,1 Z " fill="#F2F2F2" transform="translate(499,517)"/>
<path d="M0,0 L1,2 L9,1 L138,1 L144,3 L144,4 L-73,4 L-70,1 L-1,1 Z " fill="#6F6967" transform="translate(541,280)"/>
<path d="M0,0 L244,0 L244,2 L0,2 Z " fill="#36302F" transform="translate(301,683)"/>
<path d="M0,0 L9,0 L9,1 L2,1 L2,7 L6,7 L6,9 L2,10 L-1,14 L-3,14 L-3,19 L6,19 L3,21 L-1,23 L-2,32 L-6,36 L-9,37 L-10,39 L-12,39 L-13,42 L-13,35 L-18,35 L-17,32 L-15,33 L-5,33 L-5,24 L-10,25 L-15,29 L-19,29 L-19,31 L-23,33 L-30,32 L-30,29 L-37,29 L-37,26 L-24,26 L-20,19 L-15,19 L-15,16 L-12,14 L-11,10 L-7,9 L-7,7 L-3,5 Z " fill="#BFBEBE" transform="translate(471,477)"/>
<path d="M0,0 L0,3 L0,9 L110,9 L111,11 L111,19 L110,22 L101,22 L101,30 L95,32 L93,35 L93,30 L99,28 L99,20 L105,19 L105,12 L-2,12 L-2,2 Z " fill="#5C4D4D" transform="translate(521,556)"/>
<path d="M0,0 L11,1 L13,7 L11,11 L9,11 L10,4 L-375,5 L-375,3 L-5,2 L0,1 Z " fill="#353333" transform="translate(699,282)"/>
<path d="M0,0 L4,0 L4,4 L8,4 L9,11 L10,12 L11,28 L12,60 L12,113 L11,113 L9,61 L7,38 L6,28 L6,19 L3,19 L4,15 L2,12 L1,14 L-2,13 L-11,13 L-11,5 L-1,1 Z " fill="#DCDBDB" transform="translate(678,564)"/>
<path d="M0,0 L1,2 L-1,5 L-3,5 L-3,7 L1,8 L1,22 L-1,24 L-4,23 L-2,23 L-1,20 L0,9 L-8,12 L-10,15 L-12,21 L-16,23 L-17,33 L-10,34 L-10,37 L-15,39 L-17,44 L-18,51 L-20,52 L-26,52 L-27,56 L-28,49 L-20,49 L-20,38 L-29,37 L-34,35 L-39,30 L-40,25 L-35,24 L-34,20 L-34,26 L-23,28 L-20,28 L-20,26 L-27,27 L-30,25 L-21,24 L-20,21 L-18,21 L-18,19 L-14,18 L-13,13 L-8,9 L-3,3 L-1,3 Z " fill="#D1D0D0" transform="translate(457,504)"/>
<path d="M0,0 L6,0 L6,10 L1,12 L0,20 L-4,24 L-9,25 L-9,33 L-11,34 L-10,22 L-3,20 L-2,12 L-7,13 L-10,21 L-20,25 L-25,25 L-26,23 L-30,22 L-33,15 L-33,12 L-30,10 L-27,10 L-27,2 L-25,1 L-23,8 L-21,12 L-17,14 L-12,13 L-11,11 L-6,9 L-3,9 Z " fill="#DCDADA" transform="translate(553,491)"/>
<path d="M0,0 L4,0 L4,2 L10,2 L10,3 L0,3 L0,5 L2,6 L2,156 L10,156 L13,153 L13,159 L12,161 L3,162 L-1,161 L-1,159 L-4,158 L-2,158 L-2,156 L-4,156 L-4,151 L-4,148 L-4,145 L-2,145 L-1,2 Z " fill="#4A4745" transform="translate(324,282)"/>
<path d="M0,0 L8,0 L15,1 L16,3 L10,4 L-350,4 L-356,3 L-356,1 L-345,1 L-345,2 L0,2 Z " fill="#5C5755" transform="translate(684,281)"/>
<path d="M0,0 L7,0 L7,2 L3,3 L3,10 L251,10 L251,7 L258,8 L256,12 L250,16 L245,15 L218,14 L218,13 L251,13 L251,11 L7,11 L7,13 L10,13 L10,15 L2,15 L-1,10 L-2,6 Z " fill="#443C3B" transform="translate(294,672)"/>
<path d="M0,0 L3,3 L2,7 L5,6 L5,8 L14,8 L19,10 L20,13 L13,13 L8,12 L6,13 L-24,14 L-95,14 L-95,8 L-91,9 L-94,9 L-94,13 L-42,12 L-35,11 L-23,8 L-17,7 L-13,6 L-8,6 L-4,2 L-3,3 Z M20,11 Z " fill="#F2F2F1" transform="translate(539,592)"/>
<path d="M0,0 L0,3 L-2,3 L-2,5 L-5,6 L-7,16 L-15,17 L-16,25 L-18,32 L-7,32 L-7,34 L-5,34 L-5,36 L0,36 L1,37 L126,38 L126,39 L-26,39 L-27,38 L-27,29 L-23,29 L-23,27 L-19,25 L-17,16 L-8,13 L-7,5 L-4,4 L-3,1 Z M126,37 Z " fill="#EBEAEA" transform="translate(335,638)"/>
<path d="M0,0 L372,0 L372,1 L0,1 Z " fill="#555352" transform="translate(328,286)"/>
<path d="M0,0 L303,0 L303,1 L1,1 L1,69 L0,69 Z " fill="#D3D3D2" transform="translate(329,291)"/>
<path d="M0,0 L1,0 L1,8 L-5,16 L-7,16 L-8,24 L-1,24 L2,25 L9,25 L14,24 L37,24 L43,23 L50,24 L47,27 L38,28 L35,29 L-17,29 L-17,25 L-10,22 L-9,13 L-6,12 L-6,10 L-2,8 Z " fill="#F6F5F5" transform="translate(462,576)"/>
<path d="M0,0 L1,0 L1,25 L-1,34 L-2,45 L-3,142 L-9,142 L-9,88 L-8,88 L-8,140 L-5,140 L-4,16 L-3,1 Z " fill="#E3E1E1" transform="translate(699,536)"/>
<path d="M0,0 L2,1 L0,5 L-1,18 L1,22 L3,23 L3,88 L2,88 L1,56 L0,40 L-1,39 L-1,32 L-4,31 L-5,26 L-6,25 L-14,24 L-13,19 L-9,14 L-6,8 L-4,5 L-2,5 L-2,1 Z " fill="#E6E5E5" transform="translate(687,536)"/>
<path d="M0,0 L6,2 L9,2 L14,1 L15,3 L17,2 L20,3 L20,5 L23,5 L24,14 L25,18 L22,15 L22,13 L5,14 L1,16 L1,13 L-8,13 L-9,15 L-9,12 L-7,9 L-6,11 L-4,5 L-1,5 L-1,3 L-3,2 L0,2 Z " fill="#BBB8B8" transform="translate(663,659)"/>
<path d="M0,0 L2,0 L2,152 L-1,151 L-1,1 Z " fill="#504E4D" transform="translate(326,287)"/>
<path d="M0,0 L145,0 L145,2 L7,2 L7,4 L3,4 L3,6 L1,6 Z " fill="#4D4A49" transform="translate(425,353)"/>
<path d="M0,0 L1,2 L4,1 L4,72 L-1,72 L-1,47 Z " fill="#D6D4D4" transform="translate(697,606)"/>
<path d="M0,0 L3,1 L3,22 L0,23 L-3,22 L-4,26 L-8,28 L-8,26 L-13,26 L-16,28 L-16,22 L-18,22 L-17,18 L-8,18 L-7,4 L0,4 Z " fill="#F43A32" transform="translate(640,594)"/>
<path d="M0,0 L253,0 L253,11 L249,10 L250,2 L1,1 L0,3 Z " fill="#7E7B7A" transform="translate(370,326)"/>
<path d="M0,0 L136,0 L139,1 L138,4 L138,2 L0,2 Z " fill="#5A5857" transform="translate(432,355)"/>
<path d="M0,0 L2,0 L2,5 L-4,7 L-1,14 L-1,17 L4,18 L9,19 L10,18 L15,18 L14,21 L12,21 L11,25 L6,26 L6,29 L4,29 L4,32 L-1,32 L-4,26 L-8,27 L-8,17 L-6,17 L-6,5 Z " fill="#E5E5E5" transform="translate(524,496)"/>
<path d="M0,0 L1,0 L1,6 L-84,6 L-85,1 L-84,3 L-2,2 Z " fill="#36302F" transform="translate(704,679)"/>
<path d="M0,0 L1,0 L1,8 L-5,9 L-7,17 L-9,19 L-13,20 L-16,31 L-18,33 L-22,33 L-23,40 L-27,41 L-71,41 L-71,47 L-75,51 L-78,50 L-74,47 L-73,40 L-72,39 L-61,38 L-25,38 L-25,30 L-18,28 L-16,19 L-9,15 L-6,7 L0,7 Z " fill="#989494" transform="translate(634,452)"/>
<path d="M0,0 L254,0 L254,12 L253,12 L253,1 L0,1 Z " fill="#A1A0A1" transform="translate(370,325)"/>
<path d="M0,0 L2,1 L-1,2 L-1,6 L243,7 L243,8 L-2,8 L-2,1 Z " fill="#685F5D" transform="translate(299,674)"/>
<path d="M0,0 L6,0 L7,4 L9,4 L9,12 L4,13 L6,18 L12,22 L12,24 L19,25 L18,28 L13,28 L13,30 L8,28 L1,17 L0,12 L-8,12 L-8,18 L-13,19 L-12,17 L-10,17 L-9,10 L-8,8 L-2,7 Z " fill="#E0DFDF" transform="translate(413,516)"/>
<path d="M0,0 L254,0 L254,1 L0,1 Z " fill="#F2F2F1" transform="translate(369,324)"/>
<path d="M0,0 L124,0 L124,1 L4,2 L3,4 L2,14 L0,16 L-7,16 L-8,26 L-10,29 L-16,32 L-17,39 L-18,40 L-23,40 L-23,37 L-21,36 L-20,33 L-18,33 L-17,28 L-12,28 L-12,26 L-10,26 L-10,17 L-9,14 L-1,12 Z " fill="#CECCCB" transform="translate(428,359)"/>
<path d="M0,0 L5,0 L1,1 L2,10 L221,11 L221,12 L-5,12 L-5,10 L-1,9 Z " fill="#DDDDDD" transform="translate(307,666)"/>
<path d="M0,0 L4,1 L1,10 L-6,11 L-7,19 L-8,20 L-57,21 L-59,27 L-62,27 L-61,19 L-63,18 L-62,15 L-58,14 L-59,18 L-52,17 L-10,17 L-9,9 L0,9 Z " fill="#666362" transform="translate(467,431)"/>
<path d="M0,0 L5,0 L1,1 L2,7 L2,13 L4,15 L7,14 L9,15 L10,13 L10,15 L13,15 L13,17 L24,17 L36,16 L36,14 L44,14 L45,12 L45,15 L38,16 L37,17 L36,25 L32,24 L29,23 L29,25 L20,24 L10,20 L0,18 Z " fill="#F3F3F3" transform="translate(587,441)"/>
<path d="M0,0 L5,0 L3,3 L-1,3 L-2,20 L-1,21 L184,22 L183,24 L-2,23 L-4,21 L-4,5 L-3,1 Z " fill="#EBEAEA" transform="translate(384,619)"/>
<path d="M0,0 L7,1 L5,5 L2,5 L2,15 L-6,21 L-7,22 L-8,30 L-15,33 L-18,43 L-19,43 L-19,35 L-15,30 L-16,26 L-12,16 L-9,14 L-5,12 L-5,7 L-3,6 Z " fill="#6D6867" transform="translate(333,618)"/>
<path d="M0,0 L68,0 L69,2 L56,3 L-20,3 L-19,1 Z M69,0 Z " fill="#F4F4F3" transform="translate(405,673)"/>
<path d="M0,0 L7,0 L6,2 L1,4 L-1,8 L-192,8 L-192,7 L-16,6 L-3,5 Z " fill="#9D9898" transform="translate(544,673)"/>
<path d="M0,0 L1,0 L1,6 L-3,7 L-5,14 L-3,14 L-4,18 L-8,25 L-11,32 L-18,35 L-20,42 L-25,47 L-27,51 L-27,46 L-24,43 L-29,43 L-29,51 L-30,51 L-30,42 L-28,42 L-28,40 L-25,39 L-23,29 L-21,29 L-20,27 L-16,26 L-16,19 L-11,14 L-8,13 L-6,7 L-2,1 Z M-11,16 L-11,19 L-13,19 L-14,29 L-19,29 L-19,33 L-12,31 L-8,21 L-5,18 L-5,16 Z " fill="#8B817E" transform="translate(571,397)"/>
<path d="M0,0 L1,0 L1,6 L6,6 L6,7 L-2,7 L-2,12 L-3,13 L-83,13 L-82,11 L-21,10 L-18,9 L-7,8 L-3,7 L-2,4 Z " fill="#EBEAEA" transform="translate(544,664)"/>
<path d="M0,0 L3,4 L7,10 L11,12 L11,10 L17,8 L22,8 L22,19 L14,19 L15,26 L13,28 L11,18 L3,17 L2,15 L-2,14 L-3,11 L0,11 Z " fill="#E9E9E9" transform="translate(415,534)"/>
<path d="M0,0 L10,0 L12,8 L12,16 L11,18 L10,166 L9,166 L9,4 L1,4 Z M8,166 Z " fill="#3A3332" transform="translate(695,513)"/>
<path d="M0,0 L216,0 L216,1 L0,1 Z " fill="#B4B3B3" transform="translate(312,679)"/>
<path d="M0,0 L8,0 L11,10 L10,17 L8,18 L8,20 L13,21 L13,23 L21,23 L23,26 L23,37 L22,37 L21,27 L20,26 L14,26 L11,28 L4,28 L4,23 L2,23 L2,16 L5,13 L7,12 L7,6 L3,2 L1,8 L-5,8 L-3,6 L0,6 Z " fill="#EDEDEC" transform="translate(405,528)"/>
<path d="M0,0 L1,0 L1,9 L-2,13 L-3,17 L-5,17 L-6,22 L-11,25 L-15,25 L-15,13 L-9,13 L-8,2 L-7,1 L-1,1 Z " fill="#F8F8F8" transform="translate(515,503)"/>
<path d="M0,0 L1,2 L1,8 L38,9 L41,12 L41,16 L48,16 L51,13 L53,14 L52,16 L50,16 L49,19 L42,19 L41,30 L37,32 L31,32 L31,24 L36,24 L36,18 L40,17 L38,12 L37,11 L-4,10 L-3,7 L-1,7 L-1,1 Z " fill="#DDDCDC" transform="translate(391,480)"/>
<path d="M0,0 L1,3 L-6,6 L-7,15 L-8,17 L-13,16 L-13,13 L-22,14 L-26,20 L-35,23 L-38,28 L-49,29 L-54,33 L-61,32 L-60,28 L-60,31 L-53,29 L-48,26 L-40,26 L-40,22 L-35,20 L-34,17 L-26,17 L-26,12 L-24,11 L-13,10 L-10,7 L-8,7 L-7,4 L-5,4 L-5,2 L0,2 Z " fill="#DDDCDC" transform="translate(493,464)"/>
<path d="M0,0 L2,1 L2,9 L-8,12 L-8,16 L-10,16 L-12,20 L-15,27 L-17,27 L-19,32 L-20,35 L-12,35 L-9,39 L-9,43 L-11,43 L-11,39 L-18,42 L-25,43 L-24,39 L-22,37 L-29,36 L-29,35 L-21,34 L-21,23 L-13,18 L-10,10 L-2,8 L-1,1 Z " fill="#D6D5D5" transform="translate(693,525)"/>
<path d="M0,0 L9,0 L9,2 L1,2 L1,5 L-1,6 L-2,15 L-7,15 L-8,18 L-10,18 L-10,28 L-13,32 L-18,32 L-18,30 L-23,29 L-20,27 L-17,26 L-16,22 L-17,20 L-15,20 L-15,13 L-9,13 L-7,14 L-7,4 L-5,4 L-2,1 Z " fill="#865856" transform="translate(647,635)"/>
<path d="M0,0 L187,1 L191,2 L190,8 L187,10 L189,3 L1,2 Z " fill="#9D9A99" transform="translate(384,635)"/>
<path d="M0,0 L1,0 L1,6 L-4,9 L-6,9 L-5,20 L-4,21 L10,22 L139,23 L139,24 L-6,24 L-7,21 L-7,6 L-2,4 Z " fill="#AEABAB" transform="translate(390,616)"/>
<path d="M0,0 L1,0 L2,16 L178,16 L178,17 L1,17 L-1,15 Z " fill="#C3C3C2" transform="translate(382,624)"/>
<path d="M0,0 L4,1 L1,2 L0,4 L7,3 L9,2 L9,5 L4,6 L4,8 L2,8 L0,18 L-7,23 L-9,23 L-7,28 L-11,32 L-18,32 L-18,28 L-14,27 L-12,19 L-10,17 L-7,17 L-7,15 L-5,15 L-4,6 Z " fill="#76706E" transform="translate(415,582)"/>
<path d="M0,0 L184,0 L187,1 L186,6 L185,3 L178,2 L0,1 Z " fill="#A19E9D" transform="translate(386,637)"/>
<path d="M0,0 L3,1 L3,9 L1,14 L-1,21 L-7,25 L-12,25 L-12,32 L-14,35 L-18,34 L-16,34 L-15,22 L-8,18 L-7,15 L-7,6 L0,8 Z " fill="#797472" transform="translate(572,352)"/>
<path d="M0,0 L1,0 L1,47 L-1,48 L-2,92 L-3,92 L-3,20 L-2,9 Z " fill="#DCDADB" transform="translate(699,561)"/>
<path d="M0,0 L2,1 L0,3 L-1,13 L-8,18 L-9,25 L-12,27 L-13,34 L91,34 L91,35 L-14,35 L-15,34 L-15,25 L-11,23 L-11,13 L-3,12 L-2,2 Z " fill="#D6D4D4" transform="translate(527,539)"/>
<path d="M0,0 L5,1 L5,2 L0,2 L-2,13 L-6,13 L-5,20 L-2,17 L-2,22 L-5,24 L-9,24 L-10,34 L-15,37 L-17,36 L-16,33 L-20,33 L-20,31 L-16,29 L-16,23 L-13,20 L-10,20 L-8,9 L-7,11 L-5,11 L-3,2 Z " fill="#7E7775" transform="translate(400,519)"/>
<path d="M0,0 L4,0 L4,11 L-2,15 L-4,24 L-7,26 L-11,26 L-11,16 L-5,7 L-2,1 Z " fill="#F4F4F4" transform="translate(555,436)"/>
<path d="M0,0 L1,0 L1,7 L5,7 L5,9 L8,10 L9,8 L9,10 L14,11 L19,14 L22,12 L23,15 L18,16 L6,15 L0,16 L1,11 L-3,10 L-7,10 L-7,17 L-9,17 L-9,22 L-10,23 L-16,23 L-11,17 L-9,7 L-3,4 L-2,1 Z " fill="#F0F0F0" transform="translate(489,537)"/>
<path d="M0,0 L4,0 L5,4 L5,162 L1,161 L3,160 L3,6 L-5,6 L-1,3 Z " fill="#827F7E" transform="translate(698,519)"/>
<path d="M0,0 L6,0 L3,2 L0,2 L0,12 L-2,14 L-7,14 L-8,22 L-12,25 L-16,26 L-17,35 L-19,37 L-24,37 L-24,46 L-27,49 L-32,52 L-33,60 L-34,60 L-34,49 L-30,46 L-26,46 L-26,36 L-25,34 L-21,33 L-18,22 L-11,22 L-11,15 L-8,12 L-1,11 L-1,1 Z " fill="#B9B7B6" transform="translate(638,380)"/>
<path d="M0,0 L3,0 L3,73 L1,72 L0,40 Z " fill="#4C4342" transform="translate(657,560)"/>
<path d="M0,0 L11,0 L12,1 L12,9 L6,8 L-132,8 L-132,6 L10,6 L11,5 L8,4 L10,4 L10,2 L-1,2 Z " fill="#615E5D" transform="translate(560,351)"/>
<path d="M0,0 L2,2 L2,7 L4,7 L3,14 L-3,18 L-4,21 L-6,21 L-6,25 L-11,28 L-14,32 L-16,32 L-15,25 L-10,24 L-10,13 L-7,12 L-3,7 Z " fill="#837D7B" transform="translate(582,379)"/>
<path d="M0,0 L4,4 L13,7 L13,9 L21,9 L25,11 L24,12 L27,13 L27,15 L30,15 L30,21 L23,21 L23,29 L18,29 L17,25 L19,21 L19,12 L9,9 L2,8 L0,4 Z " fill="#DFDEDE" transform="translate(585,459)"/>
<path d="M0,0 L9,0 L9,2 L1,3 L1,11 L0,13 L-5,13 L-5,15 L-13,22 L-26,23 L-26,28 L-34,29 L-38,33 L-40,33 L-40,37 L-50,38 L-49,36 L-43,35 L-42,31 L-39,31 L-39,29 L-35,27 L-28,27 L-28,22 L-24,20 L-15,18 L-11,15 L-10,11 L-1,10 L-1,2 Z " fill="#F0EFEF" transform="translate(493,453)"/>
<path d="M0,0 L8,0 L5,1 L3,8 L0,8 L0,11 L-4,12 L-4,20 L30,22 L29,24 L-4,24 L-8,20 L-8,10 L-6,8 L-3,9 L-2,2 Z " fill="#6C4340" transform="translate(624,664)"/>
<path d="M0,0 L1,0 L2,10 L6,9 L9,1 L10,1 L9,11 L2,17 L-1,17 L-2,23 L-4,25 L-5,29 L-8,29 L-9,26 L-18,25 L-18,24 L-11,23 L-8,14 L-1,12 Z " fill="#C8C5C6" transform="translate(647,643)"/>
<path d="M0,0 L1,0 L1,154 L0,155 L-12,155 L-13,152 L0,153 Z " fill="#C1BFBF" transform="translate(701,525)"/>
<path d="M0,0 L1,0 L1,10 L-1,14 L-3,13 L-4,18 L-9,24 L-12,24 L-10,26 L-8,28 L-12,28 L-14,32 L-14,22 L-16,22 L-15,17 L-12,15 L-8,15 L-8,6 L-2,5 Z " fill="#706B69" transform="translate(688,316)"/>
<path d="M0,0 L0,3 L0,7 L103,8 L106,9 L106,11 L104,11 L104,20 L97,21 L97,29 L95,30 L89,30 L89,29 L94,29 L95,20 L101,18 L102,9 L-2,9 L-2,2 Z " fill="#A7A4A2" transform="translate(516,564)"/>
<path d="M0,0 L4,0 L4,3 L-1,3 L0,13 L-4,17 L-9,18 L-9,25 L-13,30 L-18,31 L-17,29 L-15,29 L-14,24 L-17,24 L-17,28 L-21,28 L-22,25 L-17,22 L-15,22 L-15,20 L-13,20 L-13,15 L-9,12 L-5,12 L-6,8 L-4,4 L-2,4 L-2,1 Z M-20,25 Z " fill="#746766" transform="translate(681,528)"/>
<path d="M0,0 L1,0 L1,9 L-3,14 L-8,18 L-11,26 L-18,30 L-19,38 L-26,41 L-27,49 L-31,53 L-33,53 L-36,65 L-44,69 L-45,76 L-46,76 L-46,68 L-41,63 L-37,61 L-35,52 L-30,49 L-29,48 L-28,40 L-26,38 L-21,38 L-20,29 L-15,26 L-13,26 L-12,16 L-5,10 L-2,8 Z " fill="#A3A1A0" transform="translate(371,572)"/>
<path d="M0,0 L7,0 L11,4 L9,4 L12,9 L13,27 L12,25 L8,24 L7,16 L10,16 L8,12 L3,9 L0,6 L-8,9 L-10,11 L-9,6 L-3,4 Z M-11,11 Z " fill="#DCDCDC" transform="translate(571,432)"/>
<path d="M0,0 L2,0 L3,11 L1,14 L-3,15 L-5,24 L-15,24 L-15,30 L-17,34 L-20,34 L-19,29 L-16,21 L-9,18 L-8,9 L-7,8 L0,8 Z " fill="#645F5E" transform="translate(672,338)"/>
<path d="M0,0 L7,0 L3,1 L2,7 L0,10 L-2,10 L-3,12 L-5,16 L-7,20 L-13,22 L-15,30 L-21,33 L-22,36 L-27,38 L-42,38 L-42,37 L-54,36 L-54,35 L-24,35 L-24,31 L-26,30 L-16,29 L-16,19 L-8,17 L-8,14 L-6,14 L-6,9 L0,8 Z " fill="#875552" transform="translate(622,578)"/>
<path d="M0,0 L8,0 L8,1 L1,2 L0,3 L-1,11 L-4,14 L-8,14 L-9,22 L-10,25 L-19,26 L-19,46 L-18,48 L-23,48 L-24,44 L-22,31 L-22,23 L-20,22 L-11,22 L-11,12 L-9,12 L-9,10 L-3,10 L-2,2 Z " fill="#F3F3F3" transform="translate(400,594)"/>
<path d="M0,0 L1,3 L5,4 L3,4 L3,16 L1,16 L2,23 L1,26 L6,24 L9,33 L6,33 L5,36 L0,34 L0,32 L-3,31 L-3,19 L0,15 L0,8 L-6,7 L-3,5 L-1,5 Z " fill="#ECEBEB" transform="translate(515,497)"/>
<path d="M0,0 L1,0 L2,6 L155,6 L154,8 L1,8 L0,7 Z " fill="#A8A6A5" transform="translate(441,600)"/>
<path d="M0,0 L1,0 L1,162 L0,162 Z " fill="#524F4E" transform="translate(703,517)"/>
<path d="M0,0 L10,0 L10,2 L5,3 L3,10 L2,13 L-1,13 L-3,22 L-7,25 L-9,25 L-11,29 L-12,29 L-12,21 L-8,21 L-7,12 L-6,10 L-1,7 Z " fill="#736E6D" transform="translate(406,511)"/>
<path d="M0,0 L5,0 L5,8 L3,10 L-3,10 L-3,17 L-5,17 L-5,21 L-11,21 L-13,26 L-18,25 L-18,22 L-16,22 L-16,19 L-11,18 L-10,14 L-8,13 L-7,10 L-3,8 Z " fill="#EDEDEC" transform="translate(546,503)"/>
<path d="M0,0 L2,1 L2,6 L-1,10 L-6,11 L-7,25 L-14,27 L-15,33 L-16,33 L-16,24 L-10,22 L-10,19 L-16,22 L-18,22 L-18,29 L-19,29 L-19,21 L-11,17 L-10,3 L0,3 Z " fill="#787473" transform="translate(488,479)"/>
<path d="M0,0 L1,0 L2,144 L6,145 L9,143 L7,147 L1,147 L0,145 Z " fill="#625F5D" transform="translate(327,292)"/>
<path d="M0,0 L7,0 L6,2 L0,4 L-1,13 L-7,15 L-11,15 L-11,25 L-12,26 L-19,27 L-20,36 L-41,36 L-45,35 L-45,31 L-41,32 L-44,32 L-44,34 L-21,34 L-21,24 L-13,24 L-13,19 L-15,18 L-14,13 L-11,12 L-2,12 L-2,3 Z " fill="#D93029" transform="translate(617,645)"/>
<path d="M0,0 L1,4 L0,6 L-6,7 L-6,12 L-8,12 L-8,19 L-10,22 L-14,22 L-16,31 L-19,32 L-19,27 L-21,27 L-21,30 L-24,30 L-22,16 L-15,15 L-14,14 L-12,4 L-11,8 L-12,15 L-14,17 L-18,18 L-20,24 L-18,24 L-17,21 L-14,21 L-12,17 L-9,16 L-9,8 L-7,8 L-7,5 L-2,5 Z M-8,9 Z " fill="#87807F" transform="translate(471,512)"/>
<path d="M0,0 L1,3 L-5,3 L-5,11 L-8,13 L-10,18 L-17,19 L-17,24 L59,24 L59,25 L-18,25 L-18,18 L-14,15 L-11,15 L-8,2 L-1,1 Z " fill="#F5F5F5" transform="translate(429,373)"/>
<path d="M0,0 L11,1 L31,1 L33,0 L38,2 L38,3 L-27,3 L-25,9 L-25,16 L-27,17 L-28,15 L-28,2 L-26,1 Z M38,1 Z " fill="#746C6A" transform="translate(452,350)"/>
<path d="M0,0 L9,0 L8,5 L4,8 L2,17 L-2,19 L-5,19 L-5,25 L-11,28 L-12,39 L-19,40 L-21,51 L-27,53 L-29,54 L-30,50 L-22,49 L-21,39 L-20,38 L-13,38 L-13,27 L-9,22 L-6,22 L-5,16 L-2,16 L-2,12 L0,11 L1,4 L2,3 L7,3 L7,1 L0,1 Z " fill="#E9E9E9" transform="translate(690,292)"/>
<path d="M0,0 L3,0 L2,5 L-3,7 L-3,5 L-6,5 L-7,85 L-3,85 L-3,88 L-16,88 L-16,85 L-8,85 L-9,77 L-9,57 L-8,3 L0,4 Z " fill="#6F5654" transform="translate(664,552)"/>
<path d="M0,0 L3,0 L3,5 L1,5 L-1,9 L-3,9 L-3,17 L-6,20 L-10,22 L-12,29 L-14,29 L-14,18 L-16,18 L-15,16 L-13,15 L-11,16 L-11,14 L-7,13 L-7,6 L-6,5 L0,5 Z " fill="#6A6463" transform="translate(362,579)"/>
<path d="M0,0 L48,0 L48,3 L-1,4 Z " fill="#53504F" transform="translate(409,445)"/>
<path d="M0,0 L40,0 L58,1 L57,3 L28,3 L25,3 L5,3 L2,2 L-3,3 L-16,3 L-21,2 L-21,1 Z " fill="#8D827F" transform="translate(472,613)"/>
<path d="M0,0 L1,0 L0,7 L3,8 L-1,12 L-3,18 L-7,20 L-9,27 L-15,28 L-11,25 L-9,16 L-13,17 L-12,14 L-10,13 L-5,3 L-2,3 Z " fill="#7D7978" transform="translate(405,451)"/>
<path d="M0,0 L4,1 L1,8 L-1,9 L-54,9 L-54,18 L-56,18 L-56,20 L-58,20 L-58,26 L-63,28 L-61,19 L-56,13 L-55,8 L-6,7 L-3,1 Z " fill="#ECEBEB" transform="translate(466,444)"/>
<path d="M0,0 L1,0 L3,7 L6,7 L4,13 L3,17 L-1,18 L-1,21 L-3,21 L-3,31 L-11,33 L-9,30 L-7,30 L-7,23 L-11,23 L-11,25 L-14,27 L-16,31 L-17,29 L-15,23 L-10,20 L-8,17 L-6,17 L-6,20 L-3,19 L-1,16 L2,16 L1,10 L-5,9 L-4,7 L-1,7 Z M-12,33 Z " fill="#F0F0EF" transform="translate(579,399)"/>
<path d="M0,0 L9,0 L9,3 L13,0 L30,0 L32,5 L24,4 L22,5 L-7,5 L-4,3 L-2,3 L-1,1 Z " fill="#B5B2B2" transform="translate(655,672)"/>
<path d="M0,0 L1,0 L2,43 L3,49 L1,55 L-1,55 L-1,57 L-9,57 L-9,55 L-65,55 L-65,54 L0,54 Z M1,45 Z M1,47 Z " fill="#4D4544" transform="translate(705,631)"/>
<path d="M0,0 L6,0 L2,3 L10,2 L10,4 L6,6 L3,6 L2,13 L-1,16 L-5,16 L-5,25 L-7,27 L-13,28 L-13,26 L-8,25 L-7,19 L-10,20 L-9,12 L-3,9 Z " fill="#6A605F" transform="translate(629,460)"/>
<path d="M0,0 L6,0 L6,7 L4,14 L0,15 L-2,19 L-7,21 L-8,19 L-8,13 L-5,11 L-4,8 L-1,8 L-1,1 Z " fill="#F1F1F0" transform="translate(588,386)"/>
<path d="M0,0 L3,0 L3,2 L-4,2 L-4,10 L-5,16 L-14,17 L-15,20 L-13,20 L-13,28 L-15,28 L-16,31 L-18,31 L-18,28 L-21,28 L-21,30 L-23,30 L-24,36 L-23,39 L-28,40 L-35,40 L-33,38 L-27,37 L-25,27 L-17,24 L-16,15 L-7,14 L-5,1 Z " fill="#E6342D" transform="translate(637,596)"/>
<path d="M0,0 L1,0 L1,8 L3,9 L3,17 L-3,20 L-7,25 L-6,20 L0,13 L-7,15 L-7,17 L-9,17 L-10,26 L-15,29 L-17,29 L-17,37 L-18,37 L-18,27 L-16,27 L-14,21 L-12,21 L-11,16 L-9,16 L-9,13 L-4,11 L-2,2 Z " fill="#8C8583" transform="translate(511,483)"/>
<path d="M0,0 L34,0 L34,2 L26,2 L26,4 L24,5 L6,6 L3,5 L3,3 L0,3 Z " fill="#FBFBFB" transform="translate(597,453)"/>
<path d="M0,0 L2,1 L1,2 L-4,2 L-4,10 L-5,13 L-7,13 L-8,16 L-12,17 L-13,26 L-16,29 L-17,27 L-20,27 L-21,37 L-25,40 L-29,39 L-24,37 L-22,26 L-14,25 L-15,17 L-17,17 L-17,10 L-15,8 L-8,6 L-9,10 L-7,11 L-5,1 Z " fill="#87807F" transform="translate(565,376)"/>
<path d="M0,0 Z M-32,-1 L-31,1 L-18,0 L-14,-1 L-14,1 L-7,0 L-1,2 L-1,3 L-69,3 L-65,1 L-63,0 L-49,1 L-35,0 Z M-1,1 Z " fill="#6F6967" transform="translate(405,281)"/>
<path d="M0,0 L2,1 L3,7 L2,13 L2,83 L1,88 L3,89 L2,98 L0,100 Z " fill="#5C5554" transform="translate(705,531)"/>
<path d="M0,0 L37,0 L45,2 L45,5 L35,5 L35,4 L5,3 L-7,2 L-7,1 Z " fill="#615C5B" transform="translate(443,401)"/>
<path d="M0,0 L3,1 L2,9 L-1,10 L-2,14 L-6,14 L-6,21 L-10,26 L-18,26 L-19,34 L-21,33 L-20,31 L-22,31 L-20,22 L-13,18 L-13,22 L-10,22 L-9,13 L-5,13 L-4,10 L-2,10 Z " fill="#807B79" transform="translate(533,416)"/>
<path d="M0,0 L5,2 L8,7 L3,12 L1,13 L0,19 L-10,21 L-8,18 L-3,17 L-3,6 L-24,5 L-24,4 L3,4 L3,2 L-8,2 L-8,1 Z " fill="#584F4E" transform="translate(640,443)"/>
<path d="M0,0 L141,0 L141,1 L0,1 Z " fill="#CDCCCC" transform="translate(371,678)"/>
<path d="M0,0 L1,0 L1,13 L-1,14 L-7,14 L-8,25 L-14,28 L-18,28 L-18,23 L-17,22 L-12,22 L-11,13 L-9,10 L-3,9 L-2,5 L0,5 Z " fill="#6A6664" transform="translate(550,388)"/>
<path d="M0,0 L1,0 L1,7 L39,8 L39,14 L32,16 L30,23 L17,23 L-4,17 L-4,16 L3,16 L13,20 L22,22 L22,20 L26,21 L29,22 L29,14 L31,12 L38,12 L38,9 L1,9 L0,8 Z " fill="#ECECEB" transform="translate(594,444)"/>
<path d="M0,0 L4,1 L2,1 L2,8 L0,11 L-5,11 L-4,14 L-3,12 L-1,12 L-1,14 L10,15 L34,16 L34,19 L40,20 L45,19 L41,23 L35,23 L35,20 L31,18 L-6,17 L-7,16 L-7,10 L-6,8 L0,8 Z " fill="#EFEEEE" transform="translate(398,472)"/>
<path d="M0,0 L1,0 L1,65 L-1,64 L-2,59 L0,59 L-2,56 L-2,51 L-1,48 L-2,43 L-2,40 L-2,27 L-1,22 L-2,19 L0,19 L-2,16 L-2,3 Z M-1,14 Z M-1,30 L0,32 Z " fill="#6C6765" transform="translate(322,320)"/>
<path d="M0,0 L2,0 L2,11 L0,14 L-5,14 L-5,18 L20,19 L20,20 L-6,20 L-7,19 L-7,14 L-9,14 L-10,18 L-12,17 L-9,10 L-3,8 L-3,2 L0,2 Z " fill="#922926" transform="translate(577,662)"/>
<path d="M0,0 L1,0 L1,9 L-4,11 L-4,13 L-6,13 L-8,22 L-11,24 L-11,21 L-14,21 L-17,21 L-17,19 L-12,16 L-10,7 L-6,4 L-1,1 Z " fill="#77706E" transform="translate(546,523)"/>
<path d="M0,0 L3,0 L2,9 L-3,12 L-6,12 L-6,19 L-9,21 L-9,25 L-12,25 L-11,19 L-16,19 L-13,18 L-12,13 L-8,8 L-3,5 L-2,1 Z " fill="#686362" transform="translate(393,467)"/>
<path d="M0,0 L2,0 L1,11 L0,12 L-7,13 L-8,23 L-17,25 L-18,34 L-25,34 L-27,45 L-32,46 L-32,48 L-34,48 L-33,45 L-29,45 L-28,40 L-27,33 L-19,33 L-19,24 L-18,21 L-11,19 L-10,18 L-10,8 L0,10 Z " fill="#E2E1E0" transform="translate(645,368)"/>
<path d="M0,0 L8,0 L8,2 L3,3 L2,12 L-1,14 L-6,15 L-8,25 L-17,28 L-20,31 L-20,25 L-19,24 L-11,24 L-11,14 L-9,12 L-2,11 L-1,2 Z " fill="#9D2824" transform="translate(619,608)"/>
<path d="M0,0 L4,0 L4,28 L3,28 L2,4 L0,3 L0,5 L-8,6 L-9,16 L-10,19 L-12,20 L-18,20 L-18,19 L-13,19 L-13,17 L-16,16 L-12,16 L-12,5 L-8,3 L-8,1 Z " fill="#A92C27" transform="translate(640,591)"/>
<path d="M0,0 L1,3 L-3,4 L-4,8 L4,7 L0,10 L-2,10 L-1,16 L-4,21 L-6,21 L-7,27 L-12,26 L-12,34 L-14,35 L-14,24 L-13,23 L-8,23 L-6,19 L-6,14 L-8,16 L-8,5 L-1,2 Z M-3,14 Z " fill="#888180" transform="translate(495,466)"/>
<path d="M0,0 L136,0 L136,1 L0,1 Z " fill="#817C7A" transform="translate(429,358)"/>
<path d="M0,0 L5,0 L1,5 L-2,14 L-7,15 L-8,24 L-9,25 L-16,26 L-18,35 L-24,37 L-23,32 L-20,30 L-19,21 L-15,20 L-11,21 L-10,15 L-7,12 L-2,12 L-1,1 Z " fill="#D8D7D7" transform="translate(671,331)"/>
<path d="M0,0 L1,0 L1,82 L-14,83 L-15,92 L-22,96 L-24,96 L-24,94 L-21,91 L-19,91 L-19,86 L-18,86 L-18,91 L-16,91 L-16,82 L-15,81 L0,81 Z " fill="#756B6B" transform="translate(661,559)"/>
<path d="M0,0 L6,0 L6,1 L1,1 L0,11 L-1,13 L-7,14 L-10,22 L-17,25 L-18,36 L-27,36 L-27,50 L-28,50 L-28,38 L-32,38 L-32,32 L-25,32 L-25,34 L-20,35 L-19,24 L-12,21 L-9,11 L-2,10 L-1,1 Z " fill="#B1AFAF" transform="translate(505,446)"/>
<path d="M0,0 L7,0 L6,5 L1,5 L1,14 L-1,16 L-6,17 L-7,26 L-15,27 L-14,23 L-11,22 L-9,13 L-8,12 L-2,12 L-1,2 Z " fill="#706B6A" transform="translate(506,447)"/>
<path d="M0,0 L1,0 L1,5 L-3,7 L-6,12 L-9,21 L-12,22 L-13,28 L-14,30 L-19,33 L-22,37 L-25,43 L-31,52 L-32,48 L-30,43 L-25,38 L-23,31 L-16,28 L-12,18 L-9,14 L-7,8 L-3,4 L0,4 Z " fill="#BFBDBD" transform="translate(576,400)"/>
<path d="M0,0 L3,0 L2,7 L43,7 L43,8 L48,9 L48,10 L1,10 Z " fill="#666362" transform="translate(400,394)"/>
<path d="M0,0 L62,0 L63,7 L60,6 L62,6 L60,1 L56,2 L-4,2 Z " fill="#8C8886" transform="translate(560,569)"/>
<path d="M0,0 L3,0 L3,80 L-1,80 L-1,43 L0,43 L1,75 L2,3 L0,3 Z " fill="#574D4C" transform="translate(658,557)"/>
<path d="M0,0 L4,2 L0,2 L4,3 L4,5 L115,5 L115,6 L0,6 L-1,1 Z " fill="#4E4442" transform="translate(439,607)"/>
<path d="M0,0 L1,3 L-1,5 L-5,6 L-7,16 L-12,21 L-16,31 L-21,34 L-22,38 L-25,38 L-26,43 L-27,39 L-24,33 L-20,31 L-17,20 L-8,13 L-7,5 Z " fill="#C3C1C1" transform="translate(486,538)"/>
<path d="M0,0 L3,1 L1,9 L-2,9 L-1,11 L40,12 L39,19 L36,23 L34,22 L37,17 L38,14 L-3,14 L-4,9 L-1,7 Z " fill="#959393" transform="translate(387,479)"/>
<path d="M0,0 L74,0 L72,2 L0,2 Z " fill="#938C8A" transform="translate(408,406)"/>
<path d="M0,0 L129,0 L129,1 L0,1 Z " fill="#9D9A99" transform="translate(400,638)"/>
<path d="M0,0 L0,3 L-5,6 L-6,16 L19,16 L35,17 L31,19 L-7,19 L-7,5 L-4,2 Z " fill="#858382" transform="translate(525,552)"/>
<path d="M0,0 L50,0 L50,1 L1,1 L1,6 L-4,12 L-5,19 L-7,21 L-12,21 L-12,29 L-19,30 L-20,36 L-22,35 L-20,28 L-14,26 L-12,19 L-8,17 L-6,11 L-3,8 Z " fill="#BEBDBC" transform="translate(410,451)"/>
<path d="M0,0 L1,0 L1,8 L0,12 L-8,12 L-9,23 L-12,26 L-16,28 L-17,35 L-19,36 L-19,26 L-21,26 L-21,22 L-12,20 L-11,11 L-10,10 L-1,10 Z " fill="#9D2E29" transform="translate(627,638)"/>
<path d="M0,0 L5,0 L3,4 L2,6 L2,14 L-1,14 L-1,18 L32,19 L32,20 L10,21 L8,22 L-4,20 L-6,14 L-4,6 L-1,6 Z " fill="#746B69" transform="translate(440,594)"/>
<path d="M0,0 L2,0 L1,5 L-4,17 L-9,22 L-10,25 L-12,25 L-13,28 L-14,24 L-13,16 L-8,15 L-8,13 L-6,13 L-6,3 L-1,2 Z " fill="#746F6E" transform="translate(470,552)"/>
<path d="M0,0 L4,2 L6,5 L6,11 L1,13 L1,15 L-7,18 L-7,7 L-1,7 Z " fill="#F9FAF9" transform="translate(407,529)"/>
<path d="M0,0 L2,0 L2,6 L1,7 L-4,7 L-4,15 L-7,18 L-9,18 L-9,14 L-12,15 L-57,15 L-57,14 L-9,13 L-8,6 L-3,4 L-2,1 Z " fill="#605756" transform="translate(620,479)"/>
<path d="M0,0 L3,1 L3,14 L-4,16 L-5,23 L-8,25 L-12,25 L-13,33 L-17,34 L-19,39 L-20,45 L-29,46 L-30,51 L-31,51 L-31,46 L-26,43 L-22,43 L-22,35 L-16,33 L-15,25 L-12,23 L-7,22 L-6,15 L-2,13 L2,13 L1,3 Z " fill="#C3C1C1" transform="translate(492,399)"/>
<path d="M0,0 L4,1 L22,1 L25,0 L32,1 L51,1 L51,3 L-18,3 L-17,1 L-4,1 Z " fill="#746C6A" transform="translate(508,350)"/>
<path d="M0,0 L56,0 L72,1 L72,2 L61,3 L37,3 L34,2 L31,3 L24,3 L19,2 L0,1 Z " fill="#866F6B" transform="translate(512,613)"/>
<path d="M0,0 L2,2 L4,1 L4,32 L2,52 L1,52 L0,16 Z " fill="#DCDBDB" transform="translate(663,576)"/>
<path d="M0,0 L1,0 L1,7 L103,6 L104,9 L-1,8 L-2,3 Z " fill="#92908F" transform="translate(517,564)"/>
<path d="M0,0 L2,0 L2,5 L-1,8 L-6,8 L-5,12 L-1,9 L3,10 L-2,12 L-5,21 L-9,23 L-9,19 L-12,19 L-12,24 L-14,24 L-15,21 L-13,16 L-8,15 L-8,8 L-6,5 L-1,3 L-2,1 Z " fill="#7B7674" transform="translate(374,560)"/>
<path d="M0,0 L4,1 L6,3 L6,5 L1,5 L2,9 L0,13 L-7,14 L-9,23 L-15,23 L-11,21 L-11,18 L-17,21 L-19,21 L-19,26 L-20,26 L-20,19 L-12,15 L-10,7 L-6,7 L-7,10 L-2,10 L-1,1 Z M2,2 L1,4 L3,4 Z " fill="#777170" transform="translate(641,387)"/>
<path d="M0,0 L1,0 L1,11 L0,13 L-31,13 L-33,9 L-32,3 L-31,1 L-29,1 L-28,7 L-30,7 L-31,10 L0,10 L0,7 L-2,6 Z " fill="#80211E" transform="translate(599,675)"/>
<path d="M0,0 L1,3 L-5,7 L-6,17 L-7,19 L-13,21 L-15,28 L-16,28 L-15,20 L-12,17 L-10,17 L-10,14 L-17,16 L-18,17 L-19,25 L-21,25 L-22,22 L-19,14 L-16,13 L-16,11 L-12,10 L-13,7 L-11,2 L-10,2 L-9,12 L-6,5 L-3,2 L0,2 Z " fill="#9B9594" transform="translate(503,510)"/>
<path d="M0,0 L7,0 L8,5 L15,4 L11,5 L10,11 L8,15 L2,18 L0,21 L1,16 L3,12 L-4,15 L-4,11 L2,11 L3,3 L0,2 Z " fill="#7E7B7A" transform="translate(608,333)"/>
<path d="M0,0 L2,0 L2,2 L49,3 L50,5 L1,5 L-5,3 L-4,1 Z M50,3 Z " fill="#F4F4F3" transform="translate(335,671)"/>
<path d="M0,0 L0,3 L-5,5 L-9,5 L-9,15 L-15,16 L-17,7 L-16,3 L-12,3 L-12,1 Z " fill="#EBEAEA" transform="translate(567,643)"/>
<path d="M0,0 L4,1 L1,6 L1,11 L-2,14 L-5,16 L-6,15 L-7,18 L2,17 L21,17 L30,16 L39,18 L39,19 L-9,19 L-8,13 L-1,11 L-1,1 Z " fill="#8C7E7B" transform="translate(530,546)"/>
<path d="M0,0 L5,1 L5,24 L2,24 L-1,15 L-1,1 Z " fill="#F6F6F5" transform="translate(689,536)"/>
<path d="M0,0 L8,1 L8,3 L3,4 L1,14 L3,14 L4,6 L6,7 L4,15 L-1,17 L-2,25 L-10,28 L-11,34 L-13,33 L-11,25 L-4,24 L-3,16 L-2,15 L-5,15 L-6,22 L-12,22 L-9,20 L-8,14 L-1,10 Z " fill="#8A8583" transform="translate(472,417)"/>
<path d="M0,0 L70,0 L68,2 L49,2 L47,1 L46,3 L41,2 L32,2 L27,3 L22,3 L22,1 L17,2 L15,1 L14,3 L2,3 L0,2 Z " fill="#867B79" transform="translate(474,333)"/>
<path d="M0,0 L5,0 L5,4 L-2,5 L-5,16 L-11,18 L-12,28 L-20,31 L-22,36 L-23,32 L-21,27 L-14,27 L-14,16 L-13,15 L-6,15 L-6,9 L-3,1 Z M-24,36 Z M-25,37 Z " fill="#DCDBDA" transform="translate(542,392)"/>
<path d="M0,0 L3,1 L4,3 L4,12 L-2,14 L-3,21 L-6,21 L-4,12 L-7,12 L-7,18 L-9,18 L-9,9 L-7,6 L1,5 Z M-7,8 Z " fill="#888383" transform="translate(489,400)"/>
<path d="M0,0 L64,0 L64,2 L47,2 L44,3 L42,2 L34,2 L27,3 L23,2 L16,3 L9,1 L8,3 L8,1 L0,3 Z " fill="#867B79" transform="translate(544,333)"/>
<path d="M0,0 L2,0 L2,8 L-6,9 L-6,14 L-4,12 L-5,18 L-7,26 L-8,27 L-15,27 L-16,38 L-17,40 L-21,39 L-18,37 L-16,26 L-10,24 L-8,24 L-8,22 L-11,21 L-9,21 L-10,13 L-8,7 L-1,5 Z " fill="#BE312B" transform="translate(606,624)"/>
<path d="M0,0 L4,2 L4,12 L3,14 L1,14 L1,16 L-4,15 L-4,13 L-6,13 L-5,5 L-3,1 Z " fill="#F6F6F6" transform="translate(599,422)"/>
<path d="M0,0 L0,3 L-4,3 L-4,16 L-12,19 L-13,27 L-21,29 L-21,27 L-16,23 L-15,15 L-13,13 L-8,12 L-7,4 L-2,1 Z " fill="#D9D9D8" transform="translate(359,598)"/>
<path d="M0,0 L1,0 L1,10 L-6,13 L-7,25 L-9,27 L-13,27 L-13,35 L23,35 L23,36 L-14,36 L-15,35 L-15,24 L-10,22 L-9,21 L-8,9 L-1,8 Z " fill="#C8C6C5" transform="translate(611,416)"/>
<path d="M0,0 L2,0 L2,11 L4,11 L4,13 L-2,15 L-3,23 L-7,27 L-10,27 L-11,29 L-11,26 L-7,24 L-6,22 L-11,22 L-10,19 L-7,19 L-7,11 L-2,8 L0,4 Z " fill="#736E6C" transform="translate(346,597)"/>
<path d="M0,0 L13,0 L14,1 L14,8 L11,13 L6,15 L5,23 L3,25 L-3,27 L-4,38 L-5,39 L-11,39 L-12,42 L-13,40 L-12,38 L-5,37 L-5,24 L2,21 L3,13 L11,9 L12,1 L0,1 Z " fill="#BEBCBB" transform="translate(552,359)"/>
<path d="M0,0 L117,0 L117,1 L0,1 Z " fill="#77706F" transform="translate(443,608)"/>
<path d="M0,0 L10,0 L10,1 L0,3 L-1,8 L-8,9 L-12,10 L-12,12 L-15,12 L-15,17 L-22,18 L-28,21 L-32,20 L-34,18 L-26,18 L-26,16 L-21,16 L-21,14 L-18,14 L-18,8 L-9,7 L-4,5 L-2,6 L-2,1 Z " fill="#F6F5F5" transform="translate(466,472)"/>
<path d="M0,0 L2,0 L2,9 L-1,12 L-3,12 L-3,14 L-7,14 L-8,25 L-9,26 L-15,26 L-11,20 L-10,10 L-3,7 Z " fill="#676260" transform="translate(648,372)"/>
<path d="M0,0 L1,0 L1,6 L-1,10 L-7,10 L-7,18 L-12,22 L-15,25 L-18,37 L-27,37 L-24,35 L-22,35 L-20,31 L-19,30 L-18,22 L-10,18 L-8,8 L-1,6 L-1,1 Z " fill="#BFBDBC" transform="translate(399,535)"/>
<path d="M0,0 L3,1 L3,16 L1,20 L-3,20 L-4,25 L-5,28 L-11,29 L-12,36 L-13,36 L-13,28 L-9,24 L-7,24 L-4,14 L0,13 Z " fill="#E6E5E5" transform="translate(623,324)"/>
<path d="M0,0 L114,0 L114,1 L0,1 Z " fill="#DBDAD9" transform="translate(480,606)"/>
<path d="M0,0 L8,0 L7,4 L6,5 L5,13 L1,17 L-6,20 L-8,21 L-8,16 L-2,14 L-1,13 L-1,5 Z " fill="#6A6564" transform="translate(376,552)"/>
<path d="M0,0 L1,4 L-1,9 L-5,10 L-5,12 L-7,13 L-8,22 L-10,24 L-17,24 L-17,30 L19,30 L19,31 L-18,31 L-19,30 L-19,24 L-17,22 L-10,19 L-9,11 L-5,8 L-3,8 L-1,2 Z " fill="#D4D3D3" transform="translate(461,576)"/>
<path d="M0,0 L1,0 L1,6 L0,8 L-7,9 L-9,20 L-16,23 L-18,27 L-20,36 L-27,37 L-29,47 L-33,48 L-31,45 L-30,37 L-28,35 L-21,35 L-20,22 L-18,20 L-10,19 L-10,7 L-9,6 L-2,5 Z " fill="#CFCECE" transform="translate(429,560)"/>
<path d="M0,0 L1,3 L0,5 L4,4 L2,14 L-4,19 L-6,18 L-5,15 L-7,15 L-8,18 L-11,18 L-11,15 L-8,15 L-8,13 L-6,12 L-5,6 L-3,6 L-4,3 Z " fill="#86807F" transform="translate(477,537)"/>
<path d="M0,0 L1,0 L1,7 L7,5 L7,9 L1,9 L0,17 L-7,17 L-7,8 L-4,5 L-2,5 L-2,1 Z " fill="#EDEDEC" transform="translate(543,455)"/>
<path d="M0,0 L1,3 L-5,4 L-7,14 L-14,18 L-17,26 L-23,27 L-24,36 L-25,36 L-25,26 L-18,23 L-16,11 L-10,9 L-5,1 Z " fill="#C6C4C4" transform="translate(528,420)"/>
<path d="M0,0 L1,0 L1,6 L-7,8 L-8,89 L-10,88 L-9,6 L-3,4 Z " fill="#B5B0AF" transform="translate(671,553)"/>
<path d="M0,0 L1,3 L-2,4 L-2,8 L-6,11 L-7,14 L-9,14 L-9,23 L-15,25 L-16,27 L-18,27 L-18,36 L-23,37 L-21,36 L-20,27 L-15,22 L-13,22 L-11,11 L-5,7 L-3,2 Z " fill="#D6D4D4" transform="translate(543,452)"/>
<path d="M0,0 L2,0 L1,10 L-3,13 L-6,13 L-9,26 L-15,26 L-15,24 L-12,22 L-10,9 L-2,7 Z " fill="#686260" transform="translate(441,547)"/>
<path d="M0,0 L2,0 L2,3 L89,3 L91,6 L91,16 L90,16 L89,7 L88,5 L0,4 Z " fill="#938C8A" transform="translate(403,396)"/>
<path d="M0,0 L1,0 L1,56 L-1,60 L-1,7 Z " fill="#545353" transform="translate(372,335)"/>
<path d="M0,0 L6,0 L6,3 L2,6 L-1,15 L-8,18 L-10,18 L-10,12 L-9,11 L-3,11 L-3,3 Z M-11,13 Z " fill="#7D7776" transform="translate(487,524)"/>
<path d="M0,0 L6,0 L6,2 L4,2 L4,8 L40,9 L40,10 L24,11 L0,11 Z " fill="#4E4948" transform="translate(376,486)"/>
<path d="M0,0 L3,0 L2,8 L0,11 L-5,11 L-6,16 L-10,11 L-11,7 L-7,3 L-7,5 L-2,2 Z " fill="#F9FAF9" transform="translate(517,420)"/>
<path d="M0,0 L1,4 L-1,6 L-6,8 L-8,15 L-14,16 L-15,26 L-18,28 L-22,28 L-25,28 L-20,25 L-18,25 L-17,14 L-11,12 L-9,5 L-1,1 Z " fill="#635F5D" transform="translate(631,403)"/>
<path d="M0,0 L2,0 L1,4 L-1,4 L0,9 L78,9 L78,10 L-4,10 L-4,4 L0,3 Z " fill="#605958" transform="translate(624,672)"/>
<path d="M0,0 L1,4 L87,4 L88,9 L86,9 L86,7 L78,6 L0,5 Z " fill="#6C6968" transform="translate(402,396)"/>
<path d="M0,0 L9,2 L9,4 L-40,4 L-36,2 L-2,1 Z " fill="#ADA9AA" transform="translate(679,675)"/>
<path d="M0,0 L2,1 L-2,4 L-4,9 L-9,12 L-12,23 L-17,26 L-20,37 L-26,38 L-27,45 L-28,45 L-28,37 L-27,35 L-22,35 L-21,29 L-18,22 L-14,22 L-12,12 L-9,9 L-5,7 L-3,2 Z " fill="#AAA7A6" transform="translate(542,451)"/>
<path d="M0,0 L1,0 L1,9 L80,9 L80,10 L0,11 L-1,10 L-1,1 Z " fill="#4C4947" transform="translate(400,395)"/>
<path d="M0,0 L1,0 L1,76 L4,76 L5,69 L12,69 L9,71 L7,72 L5,77 L1,78 L0,77 Z " fill="#C8C8C7" transform="translate(329,360)"/>
<path d="M0,0 L1,0 L1,105 L0,105 Z " fill="#F7F7F6" transform="translate(337,296)"/>
<path d="M0,0 L4,1 L1,2 L0,6 L-79,6 L-79,5 L-49,4 L-43,3 L-42,4 L-10,5 L-9,3 L-2,4 Z " fill="#ECEBEB" transform="translate(594,600)"/>
<path d="M0,0 L1,0 L1,11 L-1,13 L-9,14 L-9,24 L-12,30 L-21,32 L-19,28 L-13,23 L-12,21 L-11,12 L-2,12 Z " fill="#ECEBEB" transform="translate(383,560)"/>
<path d="M0,0 L1,4 L-1,6 L1,8 L-4,8 L-4,11 L-6,11 L-6,19 L-11,24 L-14,25 L-15,27 L-17,27 L-16,21 L-10,18 L-8,7 L-6,4 L-1,2 Z " fill="#696463" transform="translate(468,509)"/>
<path d="M0,0 L1,0 L1,7 L-5,8 L-8,16 L-16,19 L-20,20 L-25,16 L-40,12 L-45,9 L-44,7 L-37,10 L-22,14 L-9,15 L-8,8 L-6,6 L0,6 Z " fill="#DFDEDE" transform="translate(633,452)"/>
<path d="M0,0 L4,1 L1,3 L-1,9 L-3,11 L-5,14 L-8,14 L-7,18 L-11,24 L-15,26 L-16,33 L7,34 L7,35 L-17,35 L-18,30 L-17,23 L-11,20 L-10,19 L-8,9 L-2,8 L-1,1 Z " fill="#827876" transform="translate(625,410)"/>
<path d="M0,0 L5,0 L4,5 L-3,9 L-6,15 L-10,16 L-11,21 L-13,22 L-13,24 L-16,25 L-17,19 L-18,19 L-18,14 L-16,12 L-12,13 L-15,14 L-16,16 L-7,14 L-6,7 L-1,5 Z " fill="#756E6D" transform="translate(370,400)"/>
<path d="M0,0 L60,0 L56,2 L46,2 L41,3 L36,2 L9,2 L2,1 L1,14 L0,14 Z " fill="#867B79" transform="translate(375,333)"/>
<path d="M0,0 L1,0 L1,71 L-1,77 L-8,78 L-9,81 L-8,76 L-2,72 L-1,68 Z " fill="#9B9999" transform="translate(369,327)"/>
<path d="M0,0 L82,0 L82,7 L79,7 L78,1 L0,1 Z " fill="#807B79" transform="translate(544,568)"/>
<path d="M0,0 L14,1 L30,1 L33,0 L36,1 L45,2 L45,3 L-14,3 L-15,1 L-1,1 Z " fill="#866C68" transform="translate(583,562)"/>
<path d="M0,0 L1,0 L1,7 L-1,11 L-6,12 L-6,15 L-2,15 L-2,13 L4,11 L-1,17 L-1,19 L-4,22 L-4,25 L-5,26 L-10,26 L-6,25 L-7,19 L-11,22 L-9,11 L-3,8 L-1,6 Z " fill="#8A8381" transform="translate(553,505)"/>
<path d="M0,0 L2,1 L2,3 L-1,5 L-2,16 L-11,17 L-12,28 L-13,29 L-20,30 L-23,30 L-21,27 L-15,26 L-14,17 L-9,14 L-6,14 L-6,8 L-4,7 Z " fill="#AC3B37" transform="translate(630,591)"/>
<path d="M0,0 L1,0 L0,9 L2,9 L3,4 L7,2 L6,10 L-1,12 L-3,12 L-4,19 L-8,23 L-14,25 L-14,23 L-8,20 L-6,18 L-7,10 L-6,8 L-1,8 L-2,3 L0,3 Z " fill="#7D7778" transform="translate(686,523)"/>
<path d="M0,0 L2,2 L2,8 L-1,11 L-3,16 L-7,17 L-9,21 L-10,23 L-12,23 L-13,14 L-12,13 L-6,13 L-6,9 L-2,7 Z " fill="#7A7573" transform="translate(596,363)"/>
<path d="M0,0 L0,3 L-1,12 L-9,16 L-11,23 L-14,23 L-16,30 L-24,37 L-24,34 L-20,30 L-18,29 L-15,22 L-13,22 L-13,14 L-9,11 L-4,9 L-1,1 Z " fill="#B7B5B4" transform="translate(611,349)"/>
<path d="M0,0 L3,0 L3,11 L2,11 L2,3 L-5,4 L-6,13 L1,13 L-1,15 L-5,15 L-5,24 L-7,27 L-7,15 L-14,15 L-12,12 L-9,11 L-7,5 L-4,1 Z " fill="#DAD9D9" transform="translate(454,513)"/>
<path d="M0,0 L0,3 L-6,9 L-8,17 L-13,20 L-16,28 L-18,27 L-17,17 L-11,14 L-9,5 L-7,5 L-7,3 Z " fill="#6D6766" transform="translate(511,495)"/>
<path d="M0,0 L9,0 L11,4 L10,8 L8,10 L0,10 Z " fill="#DAD7D7" transform="translate(629,668)"/>
<path d="M0,0 L6,0 L6,35 L0,36 L0,33 L3,32 L4,4 L0,4 Z " fill="#892B27" transform="translate(640,587)"/>
<path d="M0,0 L9,0 L10,3 L10,19 L9,36 L8,36 L8,3 L2,3 L2,8 L-3,8 L-2,4 Z " fill="#913C37" transform="translate(638,584)"/>
<path d="M0,0 L2,0 L2,8 L-3,10 L-3,17 L-1,16 L-3,20 L-8,22 L-8,20 L-11,20 L-12,28 L-13,30 L-19,30 L-18,28 L-14,26 L-12,17 L-11,16 L-6,16 L-5,9 L0,6 L0,3 Z " fill="#8D8483" transform="translate(539,440)"/>
<path d="M0,0 L5,1 L5,10 L4,11 L-7,11 L-3,3 Z " fill="#E0DFDF" transform="translate(462,500)"/>
<path d="M0,0 L6,0 L1,4 L-2,11 L-5,12 L-5,10 L-8,10 L-8,21 L0,22 L-1,24 L-8,24 L-12,20 L-11,11 L-10,8 L-4,7 L-2,2 L0,2 Z " fill="#696361" transform="translate(408,384)"/>
<path d="M0,0 L3,0 L3,7 L-2,12 L-5,12 L-7,22 L-12,24 L-12,28 L-16,27 L-14,23 L-11,23 L-10,18 L-8,18 L-8,13 L-2,5 L0,3 Z " fill="#847F7D" transform="translate(602,348)"/>
<path d="M0,0 L2,2 L0,5 L-5,6 L-8,15 L-14,17 L-15,22 L-18,25 L-18,17 L-16,11 L-11,12 L-9,11 L-7,4 Z " fill="#805554" transform="translate(574,651)"/>
<path d="M0,0 L5,0 L5,5 L-4,8 L-6,21 L-15,22 L-16,24 L-16,20 L-9,19 L-8,9 L-5,6 L-1,4 Z " fill="#AD3935" transform="translate(592,640)"/>
<path d="M0,0 L6,0 L6,3 L1,4 L-1,8 L-3,8 L-3,17 L-10,18 L-11,19 L-12,29 L-13,29 L-13,18 L-11,16 L-5,16 L-6,10 L-8,8 L-7,6 L-12,6 L-10,3 L-5,4 L-2,4 Z " fill="#EA372E" transform="translate(637,616)"/>
<path d="M0,0 L2,0 L2,2 L9,2 L9,8 L8,4 L4,4 L3,8 L-5,13 L-6,17 L-8,17 L-7,6 L-6,5 L-1,5 Z " fill="#585352" transform="translate(694,515)"/>
<path d="M0,0 L2,0 L2,3 L-44,3 L-45,1 Z " fill="#4C4848" transform="translate(608,493)"/>
<path d="M0,0 L31,1 L31,4 L0,4 Z " fill="#5F1513" transform="translate(568,681)"/>
<path d="M0,0 L5,0 L2,6 L0,12 L-8,12 L-9,16 L-11,18 L-40,18 L-40,17 L-11,15 L-10,10 L0,10 Z " fill="#C5C2C2" transform="translate(552,661)"/>
<path d="M0,0 L2,0 L3,7 L-1,9 L-4,9 L-5,13 L-7,13 L-7,8 L-9,8 L-10,15 L-11,15 L-11,9 L-8,3 L-3,2 L0,3 Z M-8,13 Z " fill="#79716F" transform="translate(450,539)"/>
<path d="M0,0 L1,4 L-1,6 L-6,6 L-7,15 L-15,16 L-15,25 L-20,26 L-21,28 L-23,28 L-22,23 L-17,22 L-17,14 L-16,13 L-8,13 L-8,5 L-7,4 L-1,4 Z " fill="#CFCDCC" transform="translate(617,578)"/>
<path d="M0,0 L2,1 L0,5 L-1,13 L-8,16 L-10,20 L-12,29 L-19,31 L-21,40 L-28,43 L-30,48 L-31,44 L-30,40 L-23,39 L-21,29 L-20,28 L-13,28 L-11,16 L-8,13 L-3,12 L-1,1 Z " fill="#ABA9A9" transform="translate(422,568)"/>
<path d="M0,0 L2,0 L2,2 L43,2 L46,5 L46,9 L43,10 L40,15 L36,15 L36,24 L35,24 L35,14 L39,12 L42,3 L1,3 Z " fill="#C3C1C1" transform="translate(385,488)"/>
<path d="M0,0 L1,0 L1,8 L-3,8 L-2,11 L-6,12 L-8,16 L-14,16 L-14,13 L-10,11 L-9,6 L-3,5 L-3,3 L-1,3 Z " fill="#605C5B" transform="translate(353,418)"/>
<path d="M0,0 L11,0 L15,1 L16,7 L14,11 L12,11 L12,13 L10,13 L8,20 L7,20 L7,14 L8,12 L10,12 L10,3 L0,2 Z " fill="#814946" transform="translate(568,631)"/>
<path d="M0,0 L1,3 L-3,5 L-3,7 L1,8 L-4,8 L-5,18 L-7,20 L-14,20 L-13,17 L-9,15 L-7,4 L-5,2 L0,2 Z " fill="#6D6967" transform="translate(429,566)"/>
<path d="M0,0 L9,0 L9,2 L4,3 L1,9 L1,10 L-8,10 L-14,9 L-14,6 L-3,6 L-3,4 L-1,3 Z M-15,9 Z " fill="#C6C5C5" transform="translate(447,494)"/>
<path d="M0,0 L1,0 L1,9 L9,8 L12,3 L25,3 L25,6 L15,9 L11,10 L0,10 L-2,9 Z " fill="#BBB8B8" transform="translate(628,669)"/>
<path d="M0,0 L1,2 L-1,9 L-2,11 L61,12 L61,13 L-4,13 L-5,9 L-3,9 Z " fill="#989191" transform="translate(628,667)"/>
<path d="M0,0 L45,0 L45,1 L3,2 L2,8 L-1,11 L-6,13 L-7,19 L-8,19 L-8,11 L-7,9 L-1,9 Z " fill="#7E726F" transform="translate(565,497)"/>
<path d="M0,0 L3,0 L3,14 L2,15 L4,17 L1,19 L-2,19 L-3,26 L-4,27 L-9,27 L-9,25 L-7,25 L-7,21 L-5,21 L-4,14 L0,12 L2,1 Z " fill="#5E5A59" transform="translate(701,287)"/>
<path d="M0,0 L1,0 L1,11 L3,10 L4,4 L5,4 L5,14 L3,14 L3,16 L-4,17 L-4,24 L-5,26 L-7,26 L-5,16 L-4,15 L1,15 L1,13 L-7,13 L-6,10 L-3,9 L-3,6 L0,6 Z " fill="#8F8A88" transform="translate(415,498)"/>
<path d="M0,0 L6,1 L1,7 L0,16 L-2,16 L-2,18 L-4,18 L-5,16 L-9,14 L-7,14 L-6,10 L-4,8 L-2,1 Z " fill="#65605F" transform="translate(314,646)"/>
<path d="M0,0 L6,0 L2,1 L2,10 L-1,10 L-2,13 L-5,15 L-7,21 L-9,25 L-16,25 L-12,24 L-12,22 L-8,19 L-7,10 L-9,10 L-9,7 L-4,6 L-5,10 L-2,10 Z " fill="#736C69" transform="translate(657,362)"/>
<path d="M0,0 L3,1 L-2,2 L-3,7 L-3,10 L-5,14 L-9,14 L-10,16 L-12,16 L-13,21 L-15,21 L-16,27 L-18,26 L-15,13 L-7,13 L-6,1 Z " fill="#AC403B" transform="translate(634,637)"/>
<path d="M0,0 L5,0 L1,2 L0,7 L-3,9 L-12,9 L-13,13 L-15,13 L-15,15 L-26,15 L-26,14 L-19,13 L-18,11 L-16,11 L-15,7 L-4,6 Z " fill="#CFCECE" transform="translate(459,485)"/>
<path d="M0,0 L3,1 L3,3 L38,4 L39,9 L38,16 L37,16 L37,5 L25,6 L0,6 Z " fill="#6B6A69" transform="translate(599,444)"/>
<path d="M0,0 L5,0 L6,1 L7,10 L9,12 L8,14 L2,15 L0,12 Z " fill="#FBFBFB" transform="translate(588,442)"/>
<path d="M0,0 L6,0 L6,8 L2,11 L-2,12 L-3,20 L-5,22 L-10,23 L-11,32 L-14,32 L-12,21 L-6,21 L-4,9 L2,7 L4,7 L4,1 Z " fill="#EDECEC" transform="translate(558,360)"/>
<path d="M0,0 L68,0 L68,6 L65,7 L65,9 L63,10 L61,13 L62,8 L66,5 L67,1 L0,1 Z " fill="#D3D2D1" transform="translate(632,291)"/>
<path d="M0,0 L4,0 L4,83 L3,83 L3,1 Z " fill="#D6D4D4" transform="translate(697,524)"/>
<path d="M0,0 L1,2 L0,70 L-2,73 L-7,74 L-6,71 L-2,71 L-1,1 Z " fill="#F2F2F1" transform="translate(369,325)"/>
<path d="M0,0 L1,0 L1,11 L3,10 L6,2 L10,1 L7,4 L6,12 L2,15 L-4,17 L-2,13 L-1,11 L-6,11 L-7,17 L-9,17 L-8,11 L-6,9 L-1,9 Z " fill="#8E8887" transform="translate(446,583)"/>
<path d="M0,0 L3,0 L2,10 L0,13 L-4,13 L-7,23 L-9,22 L-9,10 L-2,10 Z M-10,12 Z " fill="#75706F" transform="translate(528,460)"/>
<path d="M0,0 L1,4 L38,4 L39,7 L0,6 L-1,3 Z " fill="#4D4847" transform="translate(605,441)"/>
<path d="M0,0 L1,2 L8,0 L9,0 L9,5 L7,5 L7,7 L2,8 L1,12 L-1,12 L-2,16 L-4,15 L0,7 L2,5 L-1,4 L-1,6 L-3,6 L-5,12 L-7,11 L-5,4 L-1,3 Z " fill="#827C7B" transform="translate(409,380)"/>
<path d="M0,0 L1,2 L-1,2 L-1,4 L3,4 L3,10 L-2,9 L-2,14 L-4,14 L-5,9 L-7,12 L-13,12 L-13,21 L-14,21 L-14,11 L-7,10 L-5,3 Z M-1,7 Z M0,8 Z " fill="#7F7B7A" transform="translate(693,310)"/>
<path d="M0,0 L9,0 L6,4 L4,16 L1,18 L0,15 Z " fill="#E4E2E2" transform="translate(663,561)"/>
<path d="M0,0 L84,0 L84,1 L0,1 Z " fill="#CECCCB" transform="translate(410,398)"/>
<path d="M0,0 L1,0 L1,10 L-6,11 L-7,20 L-9,22 L-15,24 L-18,32 L-23,33 L-24,40 L-25,36 L-23,31 L-19,30 L-17,21 L-16,20 L-9,19 L-8,10 L-2,8 Z " fill="#9F9D9C" transform="translate(671,336)"/>
<path d="M0,0 L1,4 L0,10 L2,9 L4,2 L9,1 L9,3 L7,5 L7,11 L2,13 L-1,19 L-5,18 L-5,14 L0,13 L0,11 L-3,10 L-1,3 Z M4,5 Z M-2,17 Z " fill="#8D8483" transform="translate(392,613)"/>
<path d="M0,0 L8,0 L6,4 L4,4 L3,11 L-2,14 L-2,12 L-4,11 L-2,11 L-2,2 Z " fill="#FDFDFD" transform="translate(492,532)"/>
<path d="M0,0 L1,4 L-4,5 L-4,7 L65,7 L65,8 L-5,8 L-5,4 L-1,3 Z " fill="#CBCACA" transform="translate(306,671)"/>
<path d="M0,0 L2,0 L2,11 L-3,13 L-4,14 L-5,21 L-6,21 L-7,12 L-8,17 L-9,17 L-9,8 L-8,7 L-1,6 Z " fill="#962824" transform="translate(606,664)"/>
<path d="M0,0 L2,1 L-2,2 L-4,6 L-6,15 L-11,18 L-16,18 L-17,26 L-22,27 L-20,24 L-18,24 L-17,17 L-16,16 L-11,16 L-11,14 L-9,13 L-6,3 Z " fill="#ABAAAA" transform="translate(323,648)"/>
<path d="M0,0 L2,0 L2,11 L-2,11 L-2,14 L-6,15 L-42,15 L-42,14 L-7,13 L-5,9 L0,9 Z " fill="#867C7C" transform="translate(602,594)"/>
<path d="M0,0 L3,1 L0,10 L-2,10 L-2,12 L-5,12 L-6,19 L-11,23 L-13,24 L-15,30 L-16,30 L-16,22 L-9,19 L-8,10 L-3,10 L-3,8 L-1,8 Z " fill="#8D8482" transform="translate(515,442)"/>
<path d="M0,0 L6,0 L6,2 L-1,4 L-3,15 L-7,18 L-12,18 L-13,21 L-13,15 L-6,15 L-5,5 L-4,2 Z " fill="#A32824" transform="translate(592,646)"/>
<path d="M0,0 L1,2 L-1,2 L-2,10 L-10,15 L-12,22 L-17,23 L-14,19 L-13,12 L-10,10 L-5,10 L-5,3 Z " fill="#604848" transform="translate(577,641)"/>
<path d="M0,0 L0,3 L3,5 L-3,5 L-4,15 L-10,17 L-10,19 L-14,19 L-14,16 L-9,14 L-7,2 Z " fill="#6C6766" transform="translate(561,501)"/>
<path d="M0,0 L6,0 L7,19 L4,23 L-1,28 L-1,18 L4,17 L4,2 L-2,2 Z " fill="#F3F3F2" transform="translate(490,396)"/>
<path d="M0,0 L1,4 L-45,4 L-45,11 L-46,12 L-53,12 L-49,10 L-47,2 L0,3 Z " fill="#5C5250" transform="translate(610,493)"/>
<path d="M0,0 L1,0 L1,8 L-8,8 L-8,13 L-59,13 L-59,12 L-49,11 L-31,11 L-10,12 L-10,7 L0,7 Z " fill="#888381" transform="translate(466,432)"/>
<path d="M0,0 L1,3 L-7,4 L-7,14 L-10,16 L-15,16 L-15,26 L-17,26 L-17,14 L-9,13 L-9,3 Z " fill="#E0DEDE" transform="translate(567,645)"/>
<path d="M0,0 L2,1 L2,17 L0,22 L-6,24 L-7,33 L-10,34 L-10,23 L-8,21 L-2,21 L-1,17 Z " fill="#A5443F" transform="translate(647,603)"/>
<path d="M0,0 L7,0 L7,2 L2,5 L0,14 L-4,17 L-6,17 L-8,27 L-9,27 L-9,17 L-6,13 L-2,13 Z " fill="#BAB7B7" transform="translate(535,525)"/>
<path d="M0,0 L1,0 L1,14 L-4,14 L-6,21 L-8,19 L-7,9 L-2,7 Z " fill="#736E6D" transform="translate(519,472)"/>
<path d="M0,0 L1,2 L-1,2 L-1,4 L-7,5 L-7,10 L-9,12 L-12,12 L-12,15 L-7,15 L-7,17 L-12,17 L-12,23 L-15,24 L-14,16 L-16,16 L-15,12 L-10,10 L-8,4 L-5,1 Z " fill="#726F6E" transform="translate(351,419)"/>
<path d="M0,0 L2,0 L3,16 L6,16 L6,14 L9,12 L12,9 L11,16 L7,16 L7,18 L3,18 L3,23 L0,23 Z " fill="#F7F7F6" transform="translate(337,401)"/>
<path d="M0,0 L1,3 L-4,4 L-4,16 L-7,15 L-7,17 L4,18 L4,19 L-10,19 L-12,16 L-10,16 L-9,12 L-8,11 L-7,3 Z " fill="#726B69" transform="translate(612,429)"/>
<path d="M0,0 L1,4 L45,5 L44,11 L41,13 L40,8 L38,7 L0,6 Z " fill="#6A6666" transform="translate(380,488)"/>
<path d="M0,0 L3,0 L3,4 L10,2 L8,6 L7,7 L2,7 L1,18 L-3,19 L-2,17 L0,17 L0,6 L-5,7 L-3,3 Z " fill="#F0F0EF" transform="translate(559,430)"/>
<path d="M0,0 L3,0 L2,4 L1,5 L0,13 L-9,18 L-11,20 L-11,15 L-6,12 L-4,10 L-3,2 Z " fill="#6F6967" transform="translate(608,345)"/>
<path d="M0,0 L75,0 L75,1 L0,1 Z " fill="#848180" transform="translate(624,680)"/>
<path d="M0,0 L1,2 L0,11 L-3,14 L-9,15 L-9,13 L-11,13 L-11,16 L-14,15 L-10,9 L-3,7 L-1,1 Z " fill="#665E5C" transform="translate(556,666)"/>
<path d="M0,0 L35,0 L40,1 L40,2 L0,2 Z " fill="#9D9A99" transform="translate(529,638)"/>
<path d="M0,0 L1,0 L1,5 L-6,5 L-7,16 L-8,18 L-15,21 L-16,29 L-17,29 L-18,20 L-21,18 L-21,16 L-9,16 L-7,3 L0,4 Z " fill="#E8E7E7" transform="translate(541,520)"/>
<path d="M0,0 L4,0 L4,7 L-1,12 L-6,12 L-5,7 L-2,2 L0,2 Z " fill="#F8F9F9" transform="translate(568,422)"/>
<path d="M0,0 L0,3 L-6,7 L-7,15 L-14,17 L-16,23 L-22,25 L-24,26 L-22,22 L-18,22 L-15,13 L-8,13 L-8,4 L-4,1 Z " fill="#BEBDBD" transform="translate(367,397)"/>
<path d="M0,0 L1,0 L1,12 L-2,14 L-8,14 L-9,21 L-11,22 L-11,12 L-5,9 L-3,9 L-2,6 L-1,7 Z " fill="#716F6D" transform="translate(427,359)"/>
<path d="M0,0 L9,0 L8,7 L11,6 L9,10 L7,10 L5,17 L-1,17 L3,15 L4,1 Z " fill="#4B4747" transform="translate(700,286)"/>
<path d="M0,0 L6,2 L6,4 L3,5 L1,12 L-3,14 L-3,12 L-8,12 L-5,8 Z " fill="#585454" transform="translate(304,660)"/>
<path d="M0,0 L11,0 L10,9 L3,12 L2,20 L-3,21 L-2,19 L0,19 L0,9 L8,8 L8,1 L0,1 Z " fill="#BFBCBC" transform="translate(560,640)"/>
<path d="M0,0 L2,0 L2,5 L0,5 L0,7 L-5,8 L-5,19 L-3,17 L-4,24 L-6,24 L-6,21 L-13,21 L-10,20 L-10,17 L-8,17 L-6,6 L0,4 Z " fill="#8C8381" transform="translate(462,560)"/>
<path d="M0,0 L40,0 L40,4 L43,5 L41,5 L41,11 L38,12 L38,1 L30,3 L30,1 L0,1 Z " fill="#77706E" transform="translate(378,497)"/>
<path d="M0,0 L2,0 L2,6 L9,6 L9,8 L2,11 L1,23 L-4,23 L-2,21 Z " fill="#E9E8E8" transform="translate(534,466)"/>
<path d="M0,0 L4,1 L1,4 L0,12 L-5,15 L-9,19 L-9,11 L-6,9 L-2,9 L-2,1 Z " fill="#6F6967" transform="translate(544,439)"/>
<path d="M0,0 L1,0 L1,39 L-2,39 L-2,34 L0,34 L-2,27 L-1,23 L-2,16 L-1,15 L-1,8 L-2,7 L-2,2 Z M-1,4 L0,7 Z M-1,16 Z " fill="#676260" transform="translate(322,385)"/>
<path d="M0,0 L2,1 L0,7 L-6,11 L-8,11 L-9,18 L-11,23 L-17,24 L-18,32 L-19,32 L-19,24 L-18,22 L-11,21 L-10,11 L-8,8 L-2,5 Z " fill="#877E7C" transform="translate(443,552)"/>
<path d="M0,0 L4,0 L4,9 L3,10 L-4,10 L-4,3 L-3,1 Z " fill="#EDECEC" transform="translate(452,516)"/>
<path d="M0,0 L6,0 L4,4 L1,9 L-1,15 L-8,17 L-8,13 L-3,13 L-2,3 L0,3 Z " fill="#6E6A69" transform="translate(560,413)"/>
<path d="M0,0 L1,4 L52,5 L52,6 L4,6 L-2,5 L-2,1 Z " fill="#979393" transform="translate(300,675)"/>
<path d="M0,0 L2,4 L2,10 L-2,11 L-3,14 L-7,15 L-8,25 L-11,24 L-8,10 L0,8 Z " fill="#F7F7F6" transform="translate(346,617)"/>
<path d="M0,0 L4,1 L1,1 L3,3 L3,7 L1,7 L1,10 L-7,12 L-7,22 L-13,23 L-13,20 L-9,20 L-9,9 L0,8 Z " fill="#695352" transform="translate(613,585)"/>
<path d="M0,0 L34,0 L38,3 L37,7 L34,7 L34,3 L16,3 L16,2 L0,1 Z " fill="#5A5656" transform="translate(384,494)"/>
<path d="M0,0 L4,0 L4,10 L-5,10 L-5,5 Z " fill="#D9D7D8" transform="translate(473,486)"/>
<path d="M0,0 L3,0 L3,12 L-2,13 L-4,9 L-4,5 L-2,5 L-2,1 Z " fill="#F4F4F3" transform="translate(530,475)"/>
<path d="M0,0 L1,0 L1,63 L-2,62 L-1,56 Z " fill="#4C4948" transform="translate(373,335)"/>
<path d="M0,0 L39,0 L37,3 L32,2 L21,3 L20,2 L13,3 L8,2 L0,2 Z " fill="#867B79" transform="translate(435,333)"/>
<path d="M0,0 L5,0 L5,11 L1,12 L-5,11 L-2,9 L0,9 L-1,7 L-1,1 Z " fill="#E5E3E3" transform="translate(695,525)"/>
<path d="M0,0 L4,1 L1,1 L1,12 L0,13 L-7,14 L-8,27 L-17,28 L-17,25 L-9,25 L-9,13 L-3,10 L-1,10 L-1,3 Z M-18,28 Z " fill="#DDDBDC" transform="translate(544,464)"/>
<path d="M0,0 L1,0 L1,10 L-2,13 L-7,13 L-8,20 L-12,20 L-14,26 L-16,26 L-14,21 L-11,18 L-9,18 L-9,12 L-8,10 L-2,8 L-1,1 Z " fill="#EBEBEA" transform="translate(488,414)"/>
<path d="M0,0 L42,0 L40,2 L-1,2 Z " fill="#704C4A" transform="translate(654,686)"/>
<path d="M0,0 L14,0 L14,1 L1,2 L0,14 L-7,16 L-10,25 L-13,25 L-11,22 L-10,14 L-2,10 L-1,1 Z " fill="#A39D9D" transform="translate(647,641)"/>
<path d="M0,0 L4,1 L1,1 L1,7 L38,6 L38,17 L37,17 L36,9 L0,8 Z " fill="#848281" transform="translate(598,443)"/>
<path d="M0,0 L3,0 L2,9 L-2,11 L-6,11 L-7,19 L-9,19 L-9,12 L-7,8 L-2,8 L-2,6 L0,6 Z " fill="#6F6A6A" transform="translate(482,412)"/>
<path d="M0,0 L70,0 L70,1 L0,1 Z " fill="#615C5B" transform="translate(408,405)"/>
<path d="M0,0 L2,0 L2,51 L0,52 Z " fill="#867B79" transform="translate(375,347)"/>
<path d="M0,0 L1,0 L1,6 L-4,9 L-7,16 L-14,17 L-14,27 L-15,27 L-15,16 L-11,13 L-8,13 L-8,7 L-4,5 L-1,5 Z " fill="#C4C3C3" transform="translate(693,304)"/>
<path d="M0,0 L24,0 L30,2 L30,3 L-2,3 Z M30,1 Z " fill="#6F6967" transform="translate(406,281)"/>
<path d="M0,0 L2,0 L2,6 L-5,8 L-6,15 L-8,17 L-12,18 L-15,23 L-17,29 L-20,29 L-18,27 L-15,18 L-13,16 L-9,15 L-8,7 L-1,4 Z " fill="#7B7374" transform="translate(570,645)"/>
<path d="M0,0 L5,0 L0,5 L-2,12 L-6,12 L-6,16 L-4,17 L-7,18 L-9,25 L-11,25 L-10,13 L-3,10 L-1,1 Z " fill="#74706F" transform="translate(403,598)"/>
<path d="M0,0 L4,1 L13,1 L12,3 L11,4 L-14,4 L-11,1 L-5,1 L-3,1 Z " fill="#F2F2F1" transform="translate(573,601)"/>
<path d="M0,0 L6,0 L7,1 L7,7 L4,8 L2,11 L-1,11 L-1,2 Z " fill="#F6F6F6" transform="translate(574,408)"/>
<path d="M0,0 L1,0 L1,35 L-2,33 L-2,20 L0,16 L-2,16 L-1,5 Z M-1,25 L0,27 Z M-1,35 Z M-2,36 Z " fill="#6A6563" transform="translate(322,285)"/>
<path d="M0,0 L8,0 L7,7 L5,10 L1,10 L0,7 Z " fill="#D4D1D2" transform="translate(648,643)"/>
<path d="M0,0 L1,0 L0,9 L-2,12 L-5,13 L-8,16 L-10,24 L-13,26 L-17,25 L-16,23 L-12,21 L-11,14 L-5,10 L-2,10 L-1,1 Z " fill="#D8D8D6" transform="translate(337,627)"/>
<path d="M0,0 L5,0 L2,1 L2,4 L7,3 L7,5 L0,7 L-1,18 L-9,18 L-9,16 L-3,15 L-3,5 Z " fill="#9C2D27" transform="translate(638,619)"/>
<path d="M0,0 L3,1 L1,4 L-3,5 L-4,15 L-10,17 L-11,20 L-13,20 L-12,16 L-11,13 L-8,12 L-5,2 Z " fill="#5C5353" transform="translate(533,542)"/>
<path d="M0,0 L7,0 L7,10 L0,9 Z " fill="#F2F2F1" transform="translate(440,528)"/>
<path d="M0,0 L1,0 L0,8 L-5,9 L-5,21 L-8,24 L-8,22 L-14,22 L-14,24 L-16,24 L-15,21 L-9,21 L-8,8 L-2,6 Z " fill="#8F8B8A" transform="translate(538,402)"/>
<path d="M0,0 L1,3 L-1,5 L-4,5 L-5,12 L-8,13 L-10,22 L-14,26 L-16,26 L-13,17 L-9,11 L-6,11 L-5,3 Z " fill="#D9D7D7" transform="translate(583,394)"/>
<path d="M0,0 L1,0 L1,10 L-5,11 L-5,13 L0,13 L0,14 L-7,14 L-7,21 L-8,24 L-16,24 L-16,23 L-10,21 L-9,11 L-7,9 L0,9 Z " fill="#AD2C26" transform="translate(634,624)"/>
<path d="M0,0 L2,0 L2,2 L-4,5 L-5,14 L-6,16 L-13,18 L-14,28 L-16,29 L-15,17 L-9,13 L-6,4 L-3,1 Z " fill="#D5D4D4" transform="translate(512,500)"/>
<path d="M0,0 L1,4 L-1,8 L-7,9 L-7,18 L-10,22 L-13,21 L-11,19 L-9,7 L-1,3 Z " fill="#595553" transform="translate(479,494)"/>
<path d="M0,0 L1,3 L-1,3 L1,11 L3,12 L0,12 L-1,19 L-2,19 L-2,14 L-10,16 L-12,23 L-13,19 L-11,12 L-3,11 L-2,2 L0,2 Z " fill="#E7E6E5" transform="translate(527,477)"/>
<path d="M0,0 Z M-16,0 L-7,0 L-1,2 L-1,3 L-33,3 L-32,1 Z M-1,1 Z " fill="#6F6967" transform="translate(469,281)"/>
<path d="M0,0 L9,1 L9,4 L5,6 L2,14 L0,14 Z " fill="#706968" transform="translate(447,580)"/>
<path d="M0,0 L5,0 L5,5 L1,9 L-4,9 L-4,2 Z " fill="#F3F2F2" transform="translate(520,491)"/>
<path d="M0,0 L1,0 L1,15 L-4,18 L-7,18 L-7,27 L-9,29 L-13,29 L-13,27 L-11,27 L-12,24 L-9,22 L-7,15 L-1,13 Z " fill="#807977" transform="translate(423,353)"/>
<path d="M0,0 L1,0 L0,7 L-2,10 L-8,11 L-8,19 L-9,21 L-11,21 L-10,10 L-6,6 L-1,5 Z " fill="#DCDCDC" transform="translate(561,443)"/>
<path d="M0,0 L1,2 L-1,9 L-7,11 L-8,22 L-15,22 L-16,29 L-17,29 L-17,21 L-15,20 L-9,20 L-9,10 L-7,7 L-2,7 Z " fill="#E8E7E6" transform="translate(511,435)"/>
<path d="M0,0 L6,0 L4,5 L0,5 L0,14 L-5,15 L-2,2 L0,2 Z " fill="#6C6765" transform="translate(524,424)"/>
<path d="M0,0 L0,3 Z " fill="#786767" transform="translate(673,536)"/>
<path d="M0,0 Z " fill="#8F8785" transform="translate(480,527)"/>
<path d="M0,0 L2,2 L0,2 Z " fill="#8C8280" transform="translate(412,501)"/>
<path d="M0,0 L3,1 Z " fill="#8A7F7F" transform="translate(484,495)"/>
<path d="M0,0 Z " fill="#605B5A" transform="translate(703,308)"/>
<path d="M0,0 Z " fill="#464040" transform="translate(708,682)"/>
<path d="M0,0 L2,1 Z " fill="#696462" transform="translate(313,643)"/>
<path d="M0,0 L2,1 Z " fill="#AA4947" transform="translate(638,637)"/>
<path d="M0,0 Z " fill="#8E8482" transform="translate(399,620)"/>
<path d="M0,0 L2,1 Z " fill="#776462" transform="translate(664,544)"/>
<path d="M0,0 Z " fill="#756D6B" transform="translate(384,536)"/>
<path d="M0,0 Z " fill="#766F6E" transform="translate(400,388)"/>
<path d="M0,0 Z " fill="#8D8484" transform="translate(576,384)"/>
<path d="M0,0 Z " fill="#786E6E" transform="translate(668,355)"/>
<path d="M0,0 Z " fill="#716C69" transform="translate(320,342)"/>
<path d="M0,0 Z " fill="#3C3636" transform="translate(292,682)"/>
<path d="M0,0 Z " fill="#943129" transform="translate(602,681)"/>
<path d="M0,0 Z " fill="#393132" transform="translate(288,681)"/>
<path d="M0,0 Z " fill="#9A312C" transform="translate(607,676)"/>
<path d="M0,0 Z " fill="#9E342E" transform="translate(605,676)"/>
<path d="M0,0 Z " fill="#814B4B" transform="translate(557,676)"/>
<path d="M0,0 Z " fill="#824E4C" transform="translate(558,674)"/>
<path d="M0,0 Z " fill="#5B5555" transform="translate(707,673)"/>
<path d="M0,0 Z " fill="#854F4D" transform="translate(559,673)"/>
<path d="M0,0 Z " fill="#924544" transform="translate(565,671)"/>
<path d="M0,0 Z " fill="#635E5C" transform="translate(707,667)"/>
<path d="M0,0 Z " fill="#B34039" transform="translate(581,657)"/>
<path d="M0,0 Z " fill="#69615F" transform="translate(312,645)"/>
<path d="M0,0 Z " fill="#736C6A" transform="translate(707,633)"/>
<path d="M0,0 Z " fill="#AD3B35" transform="translate(600,629)"/>
<path d="M0,0 Z " fill="#AA3B34" transform="translate(600,627)"/>
<path d="M0,0 Z " fill="#B13E3A" transform="translate(611,617)"/>
<path d="M0,0 Z " fill="#908883" transform="translate(399,617)"/>
<path d="M0,0 Z " fill="#706B66" transform="translate(334,616)"/>
<path d="M0,0 Z " fill="#A34B4A" transform="translate(600,615)"/>
<path d="M0,0 Z " fill="#7E706F" transform="translate(432,613)"/>
<path d="M0,0 Z " fill="#7D716F" transform="translate(434,611)"/>
<path d="M0,0 Z " fill="#7B736F" transform="translate(432,611)"/>
<path d="M0,0 Z " fill="#7E706E" transform="translate(432,609)"/>
<path d="M0,0 Z " fill="#7E7473" transform="translate(432,605)"/>
<path d="M0,0 Z " fill="#7F7572" transform="translate(432,603)"/>
<path d="M0,0 Z " fill="#746D6B" transform="translate(344,600)"/>
<path d="M0,0 Z " fill="#975753" transform="translate(654,591)"/>
<path d="M0,0 Z " fill="#847978" transform="translate(422,591)"/>
<path d="M0,0 Z " fill="#867C7A" transform="translate(420,591)"/>
<path d="M0,0 Z " fill="#9D4340" transform="translate(632,587)"/>
<path d="M0,0 Z " fill="#99423C" transform="translate(636,586)"/>
<path d="M0,0 Z " fill="#857B79" transform="translate(448,576)"/>
<path d="M0,0 Z " fill="#885956" transform="translate(654,571)"/>
<path d="M0,0 Z " fill="#726768" transform="translate(708,569)"/>
<path d="M0,0 Z " fill="#857B78" transform="translate(437,567)"/>
<path d="M0,0 Z " fill="#7D5F5B" transform="translate(613,561)"/>
<path d="M0,0 Z " fill="#897574" transform="translate(557,561)"/>
<path d="M0,0 Z " fill="#8D8281" transform="translate(460,561)"/>
<path d="M0,0 Z " fill="#897F7F" transform="translate(459,560)"/>
<path d="M0,0 Z " fill="#897D7B" transform="translate(535,551)"/>
<path d="M0,0 Z " fill="#908484" transform="translate(532,550)"/>
<path d="M0,0 Z " fill="#8F8684" transform="translate(475,536)"/>
<path d="M0,0 Z " fill="#897D7B" transform="translate(544,535)"/>
<path d="M0,0 Z " fill="#928A89" transform="translate(480,531)"/>
<path d="M0,0 Z " fill="#797170" transform="translate(392,525)"/>
<path d="M0,0 Z " fill="#897E7B" transform="translate(404,516)"/>
<path d="M0,0 Z " fill="#898180" transform="translate(488,513)"/>
<path d="M0,0 Z " fill="#867977" transform="translate(560,511)"/>
<path d="M0,0 Z " fill="#867E7F" transform="translate(410,504)"/>
<path d="M0,0 Z " fill="#847773" transform="translate(570,499)"/>
<path d="M0,0 Z " fill="#70605D" transform="translate(630,479)"/>
<path d="M0,0 Z " fill="#8C8584" transform="translate(501,470)"/>
<path d="M0,0 Z " fill="#938887" transform="translate(502,467)"/>
<path d="M0,0 Z " fill="#8C8584" transform="translate(520,465)"/>
<path d="M0,0 Z " fill="#908786" transform="translate(512,455)"/>
<path d="M0,0 Z " fill="#928A87" transform="translate(518,447)"/>
<path d="M0,0 Z " fill="#8D8482" transform="translate(527,439)"/>
<path d="M0,0 Z " fill="#8E8687" transform="translate(527,437)"/>
<path d="M0,0 Z " fill="#908987" transform="translate(544,433)"/>
<path d="M0,0 Z " fill="#6C6262" transform="translate(350,431)"/>
<path d="M0,0 Z " fill="#6E6763" transform="translate(351,429)"/>
<path d="M0,0 Z " fill="#837A77" transform="translate(622,422)"/>
<path d="M0,0 Z " fill="#6E6666" transform="translate(359,422)"/>
<path d="M0,0 Z " fill="#948B8B" transform="translate(474,416)"/>
<path d="M0,0 Z " fill="#766D6B" transform="translate(630,415)"/>
<path d="M0,0 Z " fill="#736D6C" transform="translate(367,413)"/>
<path d="M0,0 Z " fill="#77726F" transform="translate(366,412)"/>
<path d="M0,0 Z " fill="#968F8D" transform="translate(561,408)"/>
<path d="M0,0 Z " fill="#8D8481" transform="translate(549,407)"/>
<path d="M0,0 Z " fill="#696562" transform="translate(320,407)"/>
<path d="M0,0 Z " fill="#746D6B" transform="translate(375,405)"/>
<path d="M0,0 Z " fill="#6A6463" transform="translate(392,403)"/>
<path d="M0,0 Z " fill="#6E6767" transform="translate(320,396)"/>
<path d="M0,0 Z " fill="#746B6A" transform="translate(647,390)"/>
<path d="M0,0 Z " fill="#6C6868" transform="translate(320,385)"/>
<path d="M0,0 Z " fill="#6E6A69" transform="translate(320,383)"/>
<path d="M0,0 Z " fill="#706767" transform="translate(655,380)"/>
<path d="M0,0 Z " fill="#958B8A" transform="translate(562,379)"/>
<path d="M0,0 Z " fill="#726C6B" transform="translate(320,369)"/>
<path d="M0,0 Z " fill="#7C7270" transform="translate(660,367)"/>
<path d="M0,0 Z " fill="#8E8585" transform="translate(592,364)"/>
<path d="M0,0 Z " fill="#706B69" transform="translate(320,361)"/>
<path d="M0,0 Z " fill="#938886" transform="translate(608,337)"/>
<path d="M0,0 Z " fill="#716A6B" transform="translate(320,337)"/>
<path d="M0,0 Z " fill="#877B79" transform="translate(464,335)"/>
<path d="M0,0 Z " fill="#847878" transform="translate(421,335)"/>
<path d="M0,0 Z " fill="#857979" transform="translate(400,335)"/>
<path d="M0,0 Z " fill="#282523" transform="translate(276,334)"/>
<path d="M0,0 Z " fill="#6C6867" transform="translate(320,319)"/>
<path d="M0,0 Z " fill="#605D5B" transform="translate(702,311)"/>
<path d="M0,0 Z " fill="#696463" transform="translate(700,310)"/>
<path d="M0,0 Z " fill="#4B4747" transform="translate(320,286)"/>
<path d="M0,0 Z " fill="#6B6663" transform="translate(598,280)"/>
<path d="M0,0 Z " fill="#6C6362" transform="translate(566,280)"/>
<path d="M0,0 Z " fill="#6C6364" transform="translate(544,280)"/>
<path d="M0,0 Z " fill="#6C6765" transform="translate(462,280)"/>
</svg>
